<?xml version="1.0" encoding="UTF-8" standalone="no"?><svg xmlns="http://www.w3.org/2000/svg" xmlns:xlink="http://www.w3.org/1999/xlink" contentStyleType="text/css" height="221px" preserveAspectRatio="none" style="width:739px;height:221px;background:#FFFFFF;" version="1.1" viewBox="0 0 739 221" width="739px" zoomAndPan="magnify"><defs/><g><!--MD5=[834e98962f20b09c78cd8e6ce75813d5]
cluster Context--><g id="cluster_Context"><path d="M168.5,6 L224.5,6 A3.75,3.75 0 0 1 227,8.5 L234,29.6094 L729.5,29.6094 A2.5,2.5 0 0 1 732,32.1094 L732,211.5 A2.5,2.5 0 0 1 729.5,214 L168.5,214 A2.5,2.5 0 0 1 166,211.5 L166,8.5 A2.5,2.5 0 0 1 168.5,6 " fill="none" style="stroke:#000000;stroke-width:1.5;"/><line style="stroke:#000000;stroke-width:1.5;" x1="166" x2="234" y1="29.6094" y2="29.6094"/><text fill="#000000" font-family="sans-serif" font-size="14" font-weight="bold" lengthAdjust="spacing" textLength="55" x="170" y="22.5332">Context</text></g><!--MD5=[3b2ebc2a82a6ca42650088e4a2410713]
class Land--><g id="elem_Land"><rect codeLine="9" fill="#F1F1F1" height="48" id="Land" rx="2.5" ry="2.5" style="stroke:#181818;stroke-width:0.5;" width="131" x="252.5" y="150"/><ellipse cx="267.5" cy="166" fill="#ADD1B2" rx="11" ry="11" style="stroke:#181818;stroke-width:1.0;"/><path d="M266.3594,166.7969 L266.3594,169.2969 L270.6875,169.2969 L270.6875,168.375 Q270.6875,167.7656 270.9219,167.5 Q271.1719,167.2344 271.5469,167.2344 Q271.9219,167.2344 272.1563,167.5 Q272.3906,167.7656 272.3906,168.375 L272.3906,171 L264.3906,171 Q263.7656,171 263.5,170.7656 Q263.25,170.5313 263.25,170.1406 Q263.25,169.7656 263.5156,169.5313 Q263.7813,169.2969 264.3906,169.2969 L264.6563,169.2969 L264.6563,162.6406 L264.3906,162.6406 Q263.7656,162.6406 263.5,162.4063 Q263.25,162.1719 263.25,161.7813 Q263.25,161.4063 263.5,161.1719 Q263.7656,160.9375 264.3906,160.9375 L272.0156,160.9375 L272.0156,163.5313 Q272.0156,164.1406 271.7813,164.4063 Q271.5625,164.6563 271.1719,164.6563 Q270.7969,164.6563 270.5625,164.4063 Q270.3281,164.1406 270.3281,163.5313 L270.3281,162.6406 L266.3594,162.6406 L266.3594,165.0938 L267.8438,165.0938 Q267.8438,164.4375 267.9688,164.25 Q268.2344,163.8438 268.7031,163.8438 Q269.0781,163.8438 269.3125,164.1094 Q269.5469,164.3594 269.5469,164.9688 L269.5469,166.9375 Q269.5469,167.4844 269.4219,167.6719 Q269.1563,168.0625 268.7031,168.0625 Q268.2344,168.0625 267.9688,167.6563 Q267.8438,167.4688 267.8438,166.7969 L266.3594,166.7969 Z " fill="#000000"/><text fill="#000000" font-family="sans-serif" font-size="14" lengthAdjust="spacing" textLength="95" x="281.5" y="171.7285">Land | Участок</text><line style="stroke:#181818;stroke-width:0.5;" x1="253.5" x2="382.5" y1="182" y2="182"/><line style="stroke:#181818;stroke-width:0.5;" x1="253.5" x2="382.5" y1="190" y2="190"/></g><!--MD5=[973b66999aa493becd2ccacff4d25daf]
class LandName--><g id="elem_LandName"><rect codeLine="13" fill="#F1F1F1" height="48" id="LandName" rx="2.5" ry="2.5" style="stroke:#181818;stroke-width:0.5;" width="227" x="488.5" y="42"/><ellipse cx="503.5" cy="58" fill="#F1F1F1" rx="11" ry="11" style="stroke:#181818;stroke-width:1.0;"/><path d="M501.6094,62.5625 Q501.3906,62.8281 501.25,62.9063 Q501.1094,62.9844 500.9219,62.9844 Q500.5313,62.9844 500.2813,62.7188 Q500.0469,62.4531 500.0469,61.8594 L500.0469,60.7031 Q500.0469,60.0938 500.2813,59.8438 Q500.5313,59.5781 500.9219,59.5781 Q501.2188,59.5781 501.4219,59.7344 Q501.625,59.8906 501.7344,60.2656 Q501.8438,60.625 501.9531,60.7656 Q502.2031,61.0156 502.8125,61.2813 Q503.4219,61.5469 504.1563,61.5469 Q505.2969,61.5469 506.0156,61.0156 Q506.4844,60.6875 506.4844,60.2188 Q506.4844,59.9063 506.2656,59.625 Q506.0469,59.3438 505.5313,59.1719 Q505.2031,59.0469 504.0469,58.8281 Q502.6563,58.5625 501.9375,58.2031 Q501.2188,57.8438 500.7969,57.1875 Q500.3906,56.5156 500.3906,55.7344 Q500.3906,54.5156 501.4063,53.6094 Q502.4375,52.6875 504.0781,52.6875 Q504.7344,52.6875 505.2813,52.8281 Q505.8438,52.9688 506.3125,53.2656 Q506.6406,52.9531 506.9688,52.9531 Q507.3438,52.9531 507.5781,53.2188 Q507.8125,53.4688 507.8125,54.0781 L507.8125,55.3594 Q507.8125,55.9688 507.5781,56.2344 Q507.3438,56.4844 506.9688,56.4844 Q506.6563,56.4844 506.4219,56.2969 Q506.2344,56.1563 506.1406,55.7344 Q506.0625,55.3125 505.9219,55.125 Q505.6719,54.8125 505.1875,54.6094 Q504.7188,54.3906 504.0781,54.3906 Q503.1563,54.3906 502.625,54.8125 Q502.0938,55.2344 502.0938,55.7031 Q502.0938,56.0156 502.3125,56.3125 Q502.5313,56.6094 502.9531,56.7813 Q503.2344,56.8906 504.5313,57.1563 Q505.8438,57.4063 506.5469,57.7188 Q507.25,58.0156 507.7188,58.6719 Q508.1875,59.3281 508.1875,60.2344 Q508.1875,61.5 507.2969,62.25 Q506.1094,63.25 504.2813,63.25 Q503.5781,63.25 502.9063,63.0781 Q502.25,62.9063 501.6094,62.5625 Z " fill="#000000"/><text fill="#000000" font-family="sans-serif" font-size="14" lengthAdjust="spacing" textLength="195" x="517.5" y="63.7285">LandName | Название участка</text><line style="stroke:#181818;stroke-width:0.5;" x1="489.5" x2="714.5" y1="74" y2="74"/><line style="stroke:#181818;stroke-width:0.5;" x1="489.5" x2="714.5" y1="82" y2="82"/></g><!--MD5=[9807d6d74d8f1058209589cbd75a13c8]
class LandCadastreData--><g id="elem_LandCadastreData"><rect codeLine="16" fill="#F1F1F1" height="48" id="LandCadastreData" rx="2.5" ry="2.5" style="stroke:#181818;stroke-width:0.5;" width="271" x="182.5" y="42"/><ellipse cx="197.5" cy="58" fill="#F1F1F1" rx="11" ry="11" style="stroke:#181818;stroke-width:1.0;"/><path d="M195.6094,62.5625 Q195.3906,62.8281 195.25,62.9063 Q195.1094,62.9844 194.9219,62.9844 Q194.5313,62.9844 194.2813,62.7188 Q194.0469,62.4531 194.0469,61.8594 L194.0469,60.7031 Q194.0469,60.0938 194.2813,59.8438 Q194.5313,59.5781 194.9219,59.5781 Q195.2188,59.5781 195.4219,59.7344 Q195.625,59.8906 195.7344,60.2656 Q195.8438,60.625 195.9531,60.7656 Q196.2031,61.0156 196.8125,61.2813 Q197.4219,61.5469 198.1563,61.5469 Q199.2969,61.5469 200.0156,61.0156 Q200.4844,60.6875 200.4844,60.2188 Q200.4844,59.9063 200.2656,59.625 Q200.0469,59.3438 199.5313,59.1719 Q199.2031,59.0469 198.0469,58.8281 Q196.6563,58.5625 195.9375,58.2031 Q195.2188,57.8438 194.7969,57.1875 Q194.3906,56.5156 194.3906,55.7344 Q194.3906,54.5156 195.4063,53.6094 Q196.4375,52.6875 198.0781,52.6875 Q198.7344,52.6875 199.2813,52.8281 Q199.8438,52.9688 200.3125,53.2656 Q200.6406,52.9531 200.9688,52.9531 Q201.3438,52.9531 201.5781,53.2188 Q201.8125,53.4688 201.8125,54.0781 L201.8125,55.3594 Q201.8125,55.9688 201.5781,56.2344 Q201.3438,56.4844 200.9688,56.4844 Q200.6563,56.4844 200.4219,56.2969 Q200.2344,56.1563 200.1406,55.7344 Q200.0625,55.3125 199.9219,55.125 Q199.6719,54.8125 199.1875,54.6094 Q198.7188,54.3906 198.0781,54.3906 Q197.1563,54.3906 196.625,54.8125 Q196.0938,55.2344 196.0938,55.7031 Q196.0938,56.0156 196.3125,56.3125 Q196.5313,56.6094 196.9531,56.7813 Q197.2344,56.8906 198.5313,57.1563 Q199.8438,57.4063 200.5469,57.7188 Q201.25,58.0156 201.7188,58.6719 Q202.1875,59.3281 202.1875,60.2344 Q202.1875,61.5 201.2969,62.25 Q200.1094,63.25 198.2813,63.25 Q197.5781,63.25 196.9063,63.0781 Q196.25,62.9063 195.6094,62.5625 Z " fill="#000000"/><text fill="#000000" font-family="sans-serif" font-size="14" lengthAdjust="spacing" textLength="239" x="211.5" y="63.7285">LandCadastreData | Кадастр участка</text><line style="stroke:#181818;stroke-width:0.5;" x1="183.5" x2="452.5" y1="74" y2="74"/><line style="stroke:#181818;stroke-width:0.5;" x1="183.5" x2="452.5" y1="82" y2="82"/></g><!--MD5=[46c94d56f899661bbecb55a2c2011501]
class Village--><g id="elem_Village"><rect codeLine="8" fill="#F1F1F1" height="48" id="Village" rx="2.5" ry="2.5" style="stroke:#181818;stroke-width:0.5;" width="140" x="7" y="42"/><ellipse cx="22" cy="58" fill="#ADD1B2" rx="11" ry="11" style="stroke:#181818;stroke-width:1.0;"/><path d="M20.8594,58.7969 L20.8594,61.2969 L25.1875,61.2969 L25.1875,60.375 Q25.1875,59.7656 25.4219,59.5 Q25.6719,59.2344 26.0469,59.2344 Q26.4219,59.2344 26.6563,59.5 Q26.8906,59.7656 26.8906,60.375 L26.8906,63 L18.8906,63 Q18.2656,63 18,62.7656 Q17.75,62.5313 17.75,62.1406 Q17.75,61.7656 18.0156,61.5313 Q18.2813,61.2969 18.8906,61.2969 L19.1563,61.2969 L19.1563,54.6406 L18.8906,54.6406 Q18.2656,54.6406 18,54.4063 Q17.75,54.1719 17.75,53.7813 Q17.75,53.4063 18,53.1719 Q18.2656,52.9375 18.8906,52.9375 L26.5156,52.9375 L26.5156,55.5313 Q26.5156,56.1406 26.2813,56.4063 Q26.0625,56.6563 25.6719,56.6563 Q25.2969,56.6563 25.0625,56.4063 Q24.8281,56.1406 24.8281,55.5313 L24.8281,54.6406 L20.8594,54.6406 L20.8594,57.0938 L22.3438,57.0938 Q22.3438,56.4375 22.4688,56.25 Q22.7344,55.8438 23.2031,55.8438 Q23.5781,55.8438 23.8125,56.1094 Q24.0469,56.3594 24.0469,56.9688 L24.0469,58.9375 Q24.0469,59.4844 23.9219,59.6719 Q23.6563,60.0625 23.2031,60.0625 Q22.7344,60.0625 22.4688,59.6563 Q22.3438,59.4688 22.3438,58.7969 L20.8594,58.7969 Z " fill="#000000"/><text fill="#000000" font-family="sans-serif" font-size="14" lengthAdjust="spacing" textLength="108" x="36" y="63.7285">Посёлок / Village</text><line style="stroke:#181818;stroke-width:0.5;" x1="8" x2="146" y1="74" y2="74"/><line style="stroke:#181818;stroke-width:0.5;" x1="8" x2="146" y1="82" y2="82"/></g><!--MD5=[c16291e97e7bfe1e6fd9421b062658e4]
link LandName to Land--><g id="link_LandName_Land"><path codeLine="20" d="M602,97.24 C602,97.24 602,174 602,174 C602,174 390.51,174 390.51,174 " fill="none" id="LandName-Land" style="stroke:#181818;stroke-width:1.0;"/><line style="stroke:#181818;stroke-width:1.0;" x1="387.51" x2="387.51" y1="178" y2="170"/><line style="stroke:#181818;stroke-width:1.0;" x1="390.51" x2="390.51" y1="178" y2="170"/><line style="stroke:#181818;stroke-width:1.0;" x1="391.51" x2="383.51" y1="174" y2="174"/><line style="stroke:#181818;stroke-width:1.0;" x1="598" x2="606" y1="94.24" y2="94.24"/><line style="stroke:#181818;stroke-width:1.0;" x1="598" x2="606" y1="97.24" y2="97.24"/><line style="stroke:#181818;stroke-width:1.0;" x1="602" x2="602" y1="98.24" y2="90.24"/></g><!--MD5=[3a8c20f854e1e45dbcc68ad5f66cb759]
link LandCadastreData to Land--><g id="link_LandCadastreData_Land"><path codeLine="21" d="M318,97.24 C318,97.24 318,142.84 318,142.84 " fill="none" id="LandCadastreData-Land" style="stroke:#181818;stroke-width:1.0;"/><line style="stroke:#181818;stroke-width:1.0;" x1="322" x2="314" y1="145.84" y2="145.84"/><line style="stroke:#181818;stroke-width:1.0;" x1="322" x2="314" y1="142.84" y2="142.84"/><line style="stroke:#181818;stroke-width:1.0;" x1="318" x2="318" y1="141.84" y2="149.84"/><line style="stroke:#181818;stroke-width:1.0;" x1="314" x2="322" y1="94.24" y2="94.24"/><line style="stroke:#181818;stroke-width:1.0;" x1="314" x2="322" y1="97.24" y2="97.24"/><line style="stroke:#181818;stroke-width:1.0;" x1="318" x2="318" y1="98.24" y2="90.24"/></g><!--MD5=[93bd0a0387ac36762c2c63a5357df6b4]
link Village to Land--><g id="link_Village_Land"><path codeLine="5" d="M77,98.24 C77,98.24 77,174 77,174 C77,174 244.46,174 244.46,174 " fill="none" id="Village-Land" style="stroke:#181818;stroke-width:1.0;"/><line style="stroke:#181818;stroke-width:1.0;" x1="244.46" x2="252.46" y1="174" y2="168"/><line style="stroke:#181818;stroke-width:1.0;" x1="244.46" x2="252.46" y1="174" y2="180"/><line style="stroke:#181818;stroke-width:1.0;" x1="244.46" x2="252.46" y1="174" y2="174"/><ellipse cx="238.46" cy="174" fill="none" rx="4" ry="4" style="stroke:#181818;stroke-width:1.0;"/><line style="stroke:#181818;stroke-width:1.0;" x1="77" x2="77" y1="101.24" y2="90.24"/><ellipse cx="77" cy="101.24" fill="none" rx="4" ry="4" style="stroke:#181818;stroke-width:1.0;"/><line style="stroke:#181818;stroke-width:1.0;" x1="73" x2="81" y1="94.24" y2="94.24"/></g><!--MD5=[0de0219fe49f0e11f824a66d8835a38d]
@startuml

skinparam linetype ortho

!includesub village.puml!Main

package Context
{
    !startsub Main
    entity "Land | Участок " as Land {
    }
    !endsub

    struct "LandName | Название участка" as LandName {
    }

    struct "LandCadastreData | Кадастр участка" as LandCadastreData {
    }
} 

LandName ||- -|| Land
LandCadastreData ||- -|| Land

!includesub relations.puml!Land

@enduml

@startuml

skinparam linetype ortho

    entity "Посёлок / Village" as Village {
    }

package Context
{
    entity "Land | Участок " as Land {
    }

    struct "LandName | Название участка" as LandName {
    }

    struct "LandCadastreData | Кадастр участка" as LandCadastreData {
    }
} 

LandName ||- -|| Land
LandCadastreData ||- -|| Land

Village |o- -o{ Land

@enduml

PlantUML version 1.2022.7(Mon Aug 22 20:01:30 MSK 2022)
(GPL source distribution)
Java Runtime: Java(TM) SE Runtime Environment
JVM: Java HotSpot(TM) 64-Bit Server VM
Default Encoding: UTF-8
Language: en
Country: US
--></g></svg>