<?xml version="1.0" encoding="UTF-8" standalone="no"?><svg xmlns="http://www.w3.org/2000/svg" xmlns:xlink="http://www.w3.org/1999/xlink" contentStyleType="text/css" height="450px" preserveAspectRatio="none" style="width:1735px;height:450px;background:#FFFFFF;" version="1.1" viewBox="0 0 1735 450" width="1735px" zoomAndPan="magnify"><defs/><g><!--MD5=[834e98962f20b09c78cd8e6ce75813d5]
cluster Context--><g id="cluster_Context"><path d="M208.5,6 L264.5,6 A3.75,3.75 0 0 1 267,8.5 L274,29.6094 L976.5,29.6094 A2.5,2.5 0 0 1 979,32.1094 L979,440.5 A2.5,2.5 0 0 1 976.5,443 L208.5,443 A2.5,2.5 0 0 1 206,440.5 L206,8.5 A2.5,2.5 0 0 1 208.5,6 " fill="none" style="stroke:#000000;stroke-width:1.5;"/><line style="stroke:#000000;stroke-width:1.5;" x1="206" x2="274" y1="29.6094" y2="29.6094"/><text fill="#000000" font-family="sans-serif" font-size="14" font-weight="bold" lengthAdjust="spacing" textLength="55" x="210" y="22.5332">Context</text></g><!--MD5=[ed0613298a422582a859cd0ca557144d]
cluster enums--><g id="cluster_enums"><path d="M1005.5,23.5 L1053.5,23.5 A3.75,3.75 0 0 1 1056,26 L1063,47.1094 L1725.5,47.1094 A2.5,2.5 0 0 1 1728,49.6094 L1728,210 A2.5,2.5 0 0 1 1725.5,212.5 L1005.5,212.5 A2.5,2.5 0 0 1 1003,210 L1003,26 A2.5,2.5 0 0 1 1005.5,23.5 " fill="none" style="stroke:#000000;stroke-width:1.5;"/><line style="stroke:#000000;stroke-width:1.5;" x1="1003" x2="1063" y1="47.1094" y2="47.1094"/><text fill="#000000" font-family="sans-serif" font-size="14" font-weight="bold" lengthAdjust="spacing" textLength="47" x="1007" y="40.0332">enums</text></g><!--MD5=[3b2ebc2a82a6ca42650088e4a2410713]
class Land--><g id="elem_Land"><rect codeLine="9" fill="#F1F1F1" height="153.4375" id="Land" rx="2.5" ry="2.5" style="stroke:#181818;stroke-width:0.5;" width="378" x="403" y="274"/><ellipse cx="538.25" cy="290" fill="#ADD1B2" rx="11" ry="11" style="stroke:#181818;stroke-width:1.0;"/><path d="M537.1094,290.7969 L537.1094,293.2969 L541.4375,293.2969 L541.4375,292.375 Q541.4375,291.7656 541.6719,291.5 Q541.9219,291.2344 542.2969,291.2344 Q542.6719,291.2344 542.9063,291.5 Q543.1406,291.7656 543.1406,292.375 L543.1406,295 L535.1406,295 Q534.5156,295 534.25,294.7656 Q534,294.5313 534,294.1406 Q534,293.7656 534.2656,293.5313 Q534.5313,293.2969 535.1406,293.2969 L535.4063,293.2969 L535.4063,286.6406 L535.1406,286.6406 Q534.5156,286.6406 534.25,286.4063 Q534,286.1719 534,285.7813 Q534,285.4063 534.25,285.1719 Q534.5156,284.9375 535.1406,284.9375 L542.7656,284.9375 L542.7656,287.5313 Q542.7656,288.1406 542.5313,288.4063 Q542.3125,288.6563 541.9219,288.6563 Q541.5469,288.6563 541.3125,288.4063 Q541.0781,288.1406 541.0781,287.5313 L541.0781,286.6406 L537.1094,286.6406 L537.1094,289.0938 L538.5938,289.0938 Q538.5938,288.4375 538.7188,288.25 Q538.9844,287.8438 539.4531,287.8438 Q539.8281,287.8438 540.0625,288.1094 Q540.2969,288.3594 540.2969,288.9688 L540.2969,290.9375 Q540.2969,291.4844 540.1719,291.6719 Q539.9063,292.0625 539.4531,292.0625 Q538.9844,292.0625 538.7188,291.6563 Q538.5938,291.4688 538.5938,290.7969 L537.1094,290.7969 Z " fill="#000000"/><text fill="#000000" font-family="sans-serif" font-size="14" lengthAdjust="spacing" textLength="95" x="558.75" y="295.7285">Land | Участок</text><line style="stroke:#181818;stroke-width:0.5;" x1="404" x2="780" y1="306" y2="306"/><rect fill="#FF8080" height="17.6094" style="stroke:none;stroke-width:1.0;" width="35" x="413" y="316"/><text fill="#000000" font-family="sans-serif" font-size="14" lengthAdjust="spacing" textLength="27" x="417" y="330.5332">guid</text><text fill="#000000" font-family="sans-serif" font-size="14" font-weight="bold" lengthAdjust="spacing" textLength="13" x="452" y="330.5332">Id</text><text fill="#000000" font-family="sans-serif" font-size="14" lengthAdjust="spacing" textLength="65" x="473" y="330.5332">Id участка</text><line style="stroke:#000000;stroke-width:1.0;" x1="413" x2="542" y1="316" y2="316"/><line style="stroke:#000000;stroke-width:1.0;" x1="413" x2="542" y1="333.6094" y2="333.6094"/><line style="stroke:#000000;stroke-width:1.0;" x1="413" x2="413" y1="316" y2="333.6094"/><line style="stroke:#000000;stroke-width:1.0;" x1="448" x2="448" y1="316" y2="333.6094"/><line style="stroke:#000000;stroke-width:1.0;" x1="469" x2="469" y1="316" y2="333.6094"/><line style="stroke:#000000;stroke-width:1.0;" x1="542" x2="542" y1="316" y2="333.6094"/><line style="stroke:#181818;stroke-width:1.0;" x1="404" x2="780" y1="340.6094" y2="340.6094"/><text fill="#000000" font-family="sans-serif" font-size="14" lengthAdjust="spacing" textLength="27" x="417" y="365.1426">guid</text><text fill="#000000" font-family="sans-serif" font-size="14" font-weight="bold" lengthAdjust="spacing" textLength="60" x="452" y="365.1426">VillageId</text><text fill="#000000" font-family="sans-serif" font-size="14" lengthAdjust="spacing" textLength="68" x="520" y="365.1426">Id посёлка</text><line style="stroke:#000000;stroke-width:1.0;" x1="413" x2="592" y1="350.6094" y2="350.6094"/><line style="stroke:#000000;stroke-width:1.0;" x1="413" x2="592" y1="368.2188" y2="368.2188"/><line style="stroke:#000000;stroke-width:1.0;" x1="413" x2="413" y1="350.6094" y2="368.2188"/><line style="stroke:#000000;stroke-width:1.0;" x1="448" x2="448" y1="350.6094" y2="368.2188"/><line style="stroke:#000000;stroke-width:1.0;" x1="516" x2="516" y1="350.6094" y2="368.2188"/><line style="stroke:#000000;stroke-width:1.0;" x1="592" x2="592" y1="350.6094" y2="368.2188"/><line style="stroke:#181818;stroke-width:1.0;" x1="404" x2="780" y1="375.2188" y2="375.2188"/><rect fill="#FF8080" height="17.6094" style="stroke:none;stroke-width:1.0;" width="132" x="413" y="385.2188"/><text fill="#000000" font-family="sans-serif" font-size="14" lengthAdjust="spacing" textLength="68" x="421" y="399.752">LandName</text><text fill="#000000" font-family="sans-serif" font-size="14" font-weight="bold" lengthAdjust="spacing" textLength="39" x="549" y="399.752">Name</text><text fill="#000000" font-family="sans-serif" font-size="14" lengthAdjust="spacing" textLength="116" x="651" y="399.752">Название участка</text><rect fill="#FF8080" height="17.6094" style="stroke:none;stroke-width:1.0;" width="132" x="413" y="402.8281"/><text fill="#000000" font-family="sans-serif" font-size="14" lengthAdjust="spacing" textLength="120" x="421" y="417.3613">LandCadastreData</text><text fill="#000000" font-family="sans-serif" font-size="14" font-weight="bold" lengthAdjust="spacing" textLength="94" x="549" y="417.3613">CadastreData</text><text fill="#000000" font-family="sans-serif" font-size="14" lengthAdjust="spacing" textLength="108" x="651" y="417.3613">Кадастр участка</text><line style="stroke:#000000;stroke-width:1.0;" x1="413" x2="771" y1="385.2188" y2="385.2188"/><line style="stroke:#000000;stroke-width:1.0;" x1="413" x2="771" y1="402.8281" y2="402.8281"/><line style="stroke:#000000;stroke-width:1.0;" x1="413" x2="771" y1="420.4375" y2="420.4375"/><line style="stroke:#000000;stroke-width:1.0;" x1="413" x2="413" y1="385.2188" y2="420.4375"/><line style="stroke:#000000;stroke-width:1.0;" x1="545" x2="545" y1="385.2188" y2="420.4375"/><line style="stroke:#000000;stroke-width:1.0;" x1="647" x2="647" y1="385.2188" y2="420.4375"/><line style="stroke:#000000;stroke-width:1.0;" x1="771" x2="771" y1="385.2188" y2="420.4375"/></g><!--MD5=[973b66999aa493becd2ccacff4d25daf]
class LandName--><g id="elem_LandName"><rect codeLine="19" fill="#F1F1F1" height="154.6563" id="LandName" rx="2.5" ry="2.5" style="stroke:#181818;stroke-width:0.5;" width="288" x="675" y="50.5"/><ellipse cx="717.45" cy="66.5" fill="#F1F1F1" rx="11" ry="11" style="stroke:#181818;stroke-width:1.0;"/><path d="M715.5594,71.0625 Q715.3406,71.3281 715.2,71.4063 Q715.0594,71.4844 714.8719,71.4844 Q714.4813,71.4844 714.2313,71.2188 Q713.9969,70.9531 713.9969,70.3594 L713.9969,69.2031 Q713.9969,68.5938 714.2313,68.3438 Q714.4813,68.0781 714.8719,68.0781 Q715.1688,68.0781 715.3719,68.2344 Q715.575,68.3906 715.6844,68.7656 Q715.7938,69.125 715.9031,69.2656 Q716.1531,69.5156 716.7625,69.7813 Q717.3719,70.0469 718.1063,70.0469 Q719.2469,70.0469 719.9656,69.5156 Q720.4344,69.1875 720.4344,68.7188 Q720.4344,68.4063 720.2156,68.125 Q719.9969,67.8438 719.4813,67.6719 Q719.1531,67.5469 717.9969,67.3281 Q716.6063,67.0625 715.8875,66.7031 Q715.1688,66.3438 714.7469,65.6875 Q714.3406,65.0156 714.3406,64.2344 Q714.3406,63.0156 715.3563,62.1094 Q716.3875,61.1875 718.0281,61.1875 Q718.6844,61.1875 719.2313,61.3281 Q719.7938,61.4688 720.2625,61.7656 Q720.5906,61.4531 720.9188,61.4531 Q721.2938,61.4531 721.5281,61.7188 Q721.7625,61.9688 721.7625,62.5781 L721.7625,63.8594 Q721.7625,64.4688 721.5281,64.7344 Q721.2938,64.9844 720.9188,64.9844 Q720.6063,64.9844 720.3719,64.7969 Q720.1844,64.6563 720.0906,64.2344 Q720.0125,63.8125 719.8719,63.625 Q719.6219,63.3125 719.1375,63.1094 Q718.6688,62.8906 718.0281,62.8906 Q717.1063,62.8906 716.575,63.3125 Q716.0438,63.7344 716.0438,64.2031 Q716.0438,64.5156 716.2625,64.8125 Q716.4813,65.1094 716.9031,65.2813 Q717.1844,65.3906 718.4813,65.6563 Q719.7938,65.9063 720.4969,66.2188 Q721.2,66.5156 721.6688,67.1719 Q722.1375,67.8281 722.1375,68.7344 Q722.1375,70 721.2469,70.75 Q720.0594,71.75 718.2313,71.75 Q717.5281,71.75 716.8563,71.5781 Q716.2,71.4063 715.5594,71.0625 Z " fill="#000000"/><text fill="#000000" font-family="sans-serif" font-size="14" lengthAdjust="spacing" textLength="195" x="737.55" y="72.2285">LandName | Название участка</text><line style="stroke:#181818;stroke-width:0.5;" x1="676" x2="962" y1="82.5" y2="82.5"/><rect fill="#FF8080" height="17.6094" style="stroke:none;stroke-width:1.0;" width="43" x="685" y="92.5"/><text fill="#000000" font-family="sans-serif" font-size="14" lengthAdjust="spacing" textLength="27" x="689" y="107.0332">bool</text><text fill="#000000" font-family="sans-serif" font-size="14" font-weight="bold" lengthAdjust="spacing" textLength="54" x="732" y="107.0332">IsEmpty</text><text fill="#000000" font-family="sans-serif" font-size="14" lengthAdjust="spacing" textLength="102" x="830" y="107.0332">Пустые данные</text><text fill="#000000" font-family="sans-serif" font-size="14" lengthAdjust="spacing" textLength="15" x="689" y="124.6426">int</text><text fill="#000000" font-family="sans-serif" font-size="14" font-weight="bold" lengthAdjust="spacing" textLength="55" x="732" y="124.6426">Number</text><text fill="#000000" font-family="sans-serif" font-size="14" lengthAdjust="spacing" textLength="43" x="830" y="124.6426">Номер</text><text fill="#000000" font-family="sans-serif" font-size="14" lengthAdjust="spacing" textLength="15" x="689" y="142.252">int</text><text fill="#000000" font-family="sans-serif" font-size="14" font-weight="bold" lengthAdjust="spacing" textLength="73" x="732" y="142.252">PrefixDigit</text><text fill="#000000" font-family="sans-serif" font-size="14" lengthAdjust="spacing" textLength="113" x="830" y="142.252">Цифра префикса</text><text fill="#000000" font-family="sans-serif" font-size="14" lengthAdjust="spacing" textLength="35" x="689" y="159.8613">string</text><text fill="#000000" font-family="sans-serif" font-size="14" font-weight="bold" lengthAdjust="spacing" textLength="83" x="732" y="159.8613">PrefixLetter</text><text fill="#000000" font-family="sans-serif" font-size="14" lengthAdjust="spacing" textLength="105" x="830" y="159.8613">Буква префикса</text><text fill="#000000" font-family="sans-serif" font-size="14" lengthAdjust="spacing" textLength="15" x="689" y="177.4707">int</text><text fill="#000000" font-family="sans-serif" font-size="14" font-weight="bold" lengthAdjust="spacing" textLength="80" x="732" y="177.4707">PostfixDigit</text><text fill="#000000" font-family="sans-serif" font-size="14" lengthAdjust="spacing" textLength="119" x="830" y="177.4707">Цифра постфикса</text><text fill="#000000" font-family="sans-serif" font-size="14" lengthAdjust="spacing" textLength="35" x="689" y="195.0801">string</text><text fill="#000000" font-family="sans-serif" font-size="14" font-weight="bold" lengthAdjust="spacing" textLength="90" x="732" y="195.0801">PostfixLetter</text><text fill="#000000" font-family="sans-serif" font-size="14" lengthAdjust="spacing" textLength="111" x="830" y="195.0801">Буква постфикса</text><line style="stroke:#000000;stroke-width:1.0;" x1="685" x2="953" y1="92.5" y2="92.5"/><line style="stroke:#000000;stroke-width:1.0;" x1="685" x2="953" y1="110.1094" y2="110.1094"/><line style="stroke:#000000;stroke-width:1.0;" x1="685" x2="953" y1="127.7188" y2="127.7188"/><line style="stroke:#000000;stroke-width:1.0;" x1="685" x2="953" y1="145.3281" y2="145.3281"/><line style="stroke:#000000;stroke-width:1.0;" x1="685" x2="953" y1="162.9375" y2="162.9375"/><line style="stroke:#000000;stroke-width:1.0;" x1="685" x2="953" y1="180.5469" y2="180.5469"/><line style="stroke:#000000;stroke-width:1.0;" x1="685" x2="953" y1="198.1563" y2="198.1563"/><line style="stroke:#000000;stroke-width:1.0;" x1="685" x2="685" y1="92.5" y2="198.1563"/><line style="stroke:#000000;stroke-width:1.0;" x1="728" x2="728" y1="92.5" y2="198.1563"/><line style="stroke:#000000;stroke-width:1.0;" x1="826" x2="826" y1="92.5" y2="198.1563"/><line style="stroke:#000000;stroke-width:1.0;" x1="953" x2="953" y1="92.5" y2="198.1563"/></g><!--MD5=[9807d6d74d8f1058209589cbd75a13c8]
class LandCadastreData--><g id="elem_LandCadastreData"><rect codeLine="28" fill="#F1F1F1" height="172.2656" id="LandCadastreData" rx="2.5" ry="2.5" style="stroke:#181818;stroke-width:0.5;" width="417" x="222.5" y="42"/><ellipse cx="307.25" cy="58" fill="#F1F1F1" rx="11" ry="11" style="stroke:#181818;stroke-width:1.0;"/><path d="M305.3594,62.5625 Q305.1406,62.8281 305,62.9063 Q304.8594,62.9844 304.6719,62.9844 Q304.2813,62.9844 304.0313,62.7188 Q303.7969,62.4531 303.7969,61.8594 L303.7969,60.7031 Q303.7969,60.0938 304.0313,59.8438 Q304.2813,59.5781 304.6719,59.5781 Q304.9688,59.5781 305.1719,59.7344 Q305.375,59.8906 305.4844,60.2656 Q305.5938,60.625 305.7031,60.7656 Q305.9531,61.0156 306.5625,61.2813 Q307.1719,61.5469 307.9063,61.5469 Q309.0469,61.5469 309.7656,61.0156 Q310.2344,60.6875 310.2344,60.2188 Q310.2344,59.9063 310.0156,59.625 Q309.7969,59.3438 309.2813,59.1719 Q308.9531,59.0469 307.7969,58.8281 Q306.4063,58.5625 305.6875,58.2031 Q304.9688,57.8438 304.5469,57.1875 Q304.1406,56.5156 304.1406,55.7344 Q304.1406,54.5156 305.1563,53.6094 Q306.1875,52.6875 307.8281,52.6875 Q308.4844,52.6875 309.0313,52.8281 Q309.5938,52.9688 310.0625,53.2656 Q310.3906,52.9531 310.7188,52.9531 Q311.0938,52.9531 311.3281,53.2188 Q311.5625,53.4688 311.5625,54.0781 L311.5625,55.3594 Q311.5625,55.9688 311.3281,56.2344 Q311.0938,56.4844 310.7188,56.4844 Q310.4063,56.4844 310.1719,56.2969 Q309.9844,56.1563 309.8906,55.7344 Q309.8125,55.3125 309.6719,55.125 Q309.4219,54.8125 308.9375,54.6094 Q308.4688,54.3906 307.8281,54.3906 Q306.9063,54.3906 306.375,54.8125 Q305.8438,55.2344 305.8438,55.7031 Q305.8438,56.0156 306.0625,56.3125 Q306.2813,56.6094 306.7031,56.7813 Q306.9844,56.8906 308.2813,57.1563 Q309.5938,57.4063 310.2969,57.7188 Q311,58.0156 311.4688,58.6719 Q311.9375,59.3281 311.9375,60.2344 Q311.9375,61.5 311.0469,62.25 Q309.8594,63.25 308.0313,63.25 Q307.3281,63.25 306.6563,63.0781 Q306,62.9063 305.3594,62.5625 Z " fill="#000000"/><text fill="#000000" font-family="sans-serif" font-size="14" lengthAdjust="spacing" textLength="239" x="327.75" y="63.7285">LandCadastreData | Кадастр участка</text><line style="stroke:#181818;stroke-width:0.5;" x1="223.5" x2="638.5" y1="74" y2="74"/><rect fill="#FF8080" height="17.6094" style="stroke:none;stroke-width:1.0;" width="151" x="232.5" y="84"/><text fill="#000000" font-family="sans-serif" font-size="14" lengthAdjust="spacing" textLength="27" x="236.5" y="98.5332">bool</text><text fill="#000000" font-family="sans-serif" font-size="14" font-weight="bold" lengthAdjust="spacing" textLength="54" x="387.5" y="98.5332">IsEmpty</text><text fill="#000000" font-family="sans-serif" font-size="14" lengthAdjust="spacing" textLength="102" x="513.5" y="98.5332">Пустые данные</text><text fill="#000000" font-family="sans-serif" font-size="14" lengthAdjust="spacing" textLength="35" x="236.5" y="116.1426">string</text><text fill="#000000" font-family="sans-serif" font-size="14" font-weight="bold" lengthAdjust="spacing" textLength="118" x="387.5" y="116.1426">CadastreNumber</text><text fill="#000000" font-family="sans-serif" font-size="14" lengthAdjust="spacing" textLength="107" x="513.5" y="116.1426">Номер кадастра</text><text fill="#000000" font-family="sans-serif" font-size="14" lengthAdjust="spacing" textLength="48" x="236.5" y="133.752">decimal</text><text fill="#000000" font-family="sans-serif" font-size="14" font-weight="bold" lengthAdjust="spacing" textLength="32" x="387.5" y="133.752">Area</text><text fill="#000000" font-family="sans-serif" font-size="14" lengthAdjust="spacing" textLength="60" x="513.5" y="133.752">Площадь</text><text fill="#000000" font-family="sans-serif" font-size="14" lengthAdjust="spacing" textLength="35" x="236.5" y="151.3613">string</text><text fill="#000000" font-family="sans-serif" font-size="14" font-weight="bold" lengthAdjust="spacing" textLength="58" x="387.5" y="151.3613">Address</text><text fill="#000000" font-family="sans-serif" font-size="14" lengthAdjust="spacing" textLength="40" x="513.5" y="151.3613">Адрес</text><text fill="#000000" font-family="sans-serif" font-size="14" lengthAdjust="spacing" textLength="143" x="236.5" y="168.9707">enum:AllowedUseType</text><text fill="#000000" font-family="sans-serif" font-size="14" font-weight="bold" lengthAdjust="spacing" textLength="115" x="387.5" y="168.9707">AllowedUseType</text><text fill="#000000" font-family="sans-serif" font-size="14" lengthAdjust="spacing" textLength="28" x="513.5" y="168.9707">ВРИ</text><text fill="#000000" font-family="sans-serif" font-size="14" lengthAdjust="spacing" textLength="48" x="236.5" y="186.5801">decimal</text><text fill="#000000" font-family="sans-serif" font-size="14" font-weight="bold" lengthAdjust="spacing" textLength="32" x="387.5" y="186.5801">Cost</text><text fill="#000000" font-family="sans-serif" font-size="14" lengthAdjust="spacing" textLength="73" x="513.5" y="186.5801">Стоимость</text><text fill="#000000" font-family="sans-serif" font-size="14" lengthAdjust="spacing" textLength="129" x="236.5" y="204.1895">enum:LandCategory</text><text fill="#000000" font-family="sans-serif" font-size="14" font-weight="bold" lengthAdjust="spacing" textLength="97" x="387.5" y="204.1895">LandCategory</text><text fill="#000000" font-family="sans-serif" font-size="14" lengthAdjust="spacing" textLength="112" x="513.5" y="204.1895">Категория земли</text><line style="stroke:#000000;stroke-width:1.0;" x1="232.5" x2="629.5" y1="84" y2="84"/><line style="stroke:#000000;stroke-width:1.0;" x1="232.5" x2="629.5" y1="101.6094" y2="101.6094"/><line style="stroke:#000000;stroke-width:1.0;" x1="232.5" x2="629.5" y1="119.2188" y2="119.2188"/><line style="stroke:#000000;stroke-width:1.0;" x1="232.5" x2="629.5" y1="136.8281" y2="136.8281"/><line style="stroke:#000000;stroke-width:1.0;" x1="232.5" x2="629.5" y1="154.4375" y2="154.4375"/><line style="stroke:#000000;stroke-width:1.0;" x1="232.5" x2="629.5" y1="172.0469" y2="172.0469"/><line style="stroke:#000000;stroke-width:1.0;" x1="232.5" x2="629.5" y1="189.6563" y2="189.6563"/><line style="stroke:#000000;stroke-width:1.0;" x1="232.5" x2="629.5" y1="207.2656" y2="207.2656"/><line style="stroke:#000000;stroke-width:1.0;" x1="232.5" x2="232.5" y1="84" y2="207.2656"/><line style="stroke:#000000;stroke-width:1.0;" x1="383.5" x2="383.5" y1="84" y2="207.2656"/><line style="stroke:#000000;stroke-width:1.0;" x1="509.5" x2="509.5" y1="84" y2="207.2656"/><line style="stroke:#000000;stroke-width:1.0;" x1="629.5" x2="629.5" y1="84" y2="207.2656"/></g><!--MD5=[bcd3949e39ec1dde64c4b19f31f0e611]
class LandCategory--><g id="elem_LandCategory"><rect codeLine="42" fill="#F1F1F1" height="101.8281" id="LandCategory" rx="2.5" ry="2.5" style="stroke:#181818;stroke-width:0.5;" width="422" x="1290" y="77"/><ellipse cx="1390.25" cy="93" fill="#EB937F" rx="11" ry="11" style="stroke:#181818;stroke-width:1.0;"/><path d="M1389.1094,93.7969 L1389.1094,96.2969 L1393.4375,96.2969 L1393.4375,95.375 Q1393.4375,94.7656 1393.6719,94.5 Q1393.9219,94.2344 1394.2969,94.2344 Q1394.6719,94.2344 1394.9063,94.5 Q1395.1406,94.7656 1395.1406,95.375 L1395.1406,98 L1387.1406,98 Q1386.5156,98 1386.25,97.7656 Q1386,97.5313 1386,97.1406 Q1386,96.7656 1386.2656,96.5313 Q1386.5313,96.2969 1387.1406,96.2969 L1387.4063,96.2969 L1387.4063,89.6406 L1387.1406,89.6406 Q1386.5156,89.6406 1386.25,89.4063 Q1386,89.1719 1386,88.7813 Q1386,88.4063 1386.25,88.1719 Q1386.5156,87.9375 1387.1406,87.9375 L1394.7656,87.9375 L1394.7656,90.5313 Q1394.7656,91.1406 1394.5313,91.4063 Q1394.3125,91.6563 1393.9219,91.6563 Q1393.5469,91.6563 1393.3125,91.4063 Q1393.0781,91.1406 1393.0781,90.5313 L1393.0781,89.6406 L1389.1094,89.6406 L1389.1094,92.0938 L1390.5938,92.0938 Q1390.5938,91.4375 1390.7188,91.25 Q1390.9844,90.8438 1391.4531,90.8438 Q1391.8281,90.8438 1392.0625,91.1094 Q1392.2969,91.3594 1392.2969,91.9688 L1392.2969,93.9375 Q1392.2969,94.4844 1392.1719,94.6719 Q1391.9063,95.0625 1391.4531,95.0625 Q1390.9844,95.0625 1390.7188,94.6563 Q1390.5938,94.4688 1390.5938,93.7969 L1389.1094,93.7969 Z " fill="#000000"/><text fill="#000000" font-family="sans-serif" font-size="14" lengthAdjust="spacing" textLength="213" x="1410.75" y="98.7285">LandCategory | Категория земли</text><line style="stroke:#181818;stroke-width:0.5;" x1="1291" x2="1711" y1="109" y2="109"/><text fill="#000000" font-family="sans-serif" font-size="14" font-weight="bold" lengthAdjust="spacing" textLength="105" x="1304" y="133.5332">LandCategory1</text><text fill="#000000" font-family="sans-serif" font-size="14" lengthAdjust="spacing" textLength="281" x="1417" y="133.5332">Земли сельскохозяйственного назначения</text><text fill="#000000" font-family="sans-serif" font-size="14" font-weight="bold" lengthAdjust="spacing" textLength="105" x="1304" y="151.1426">LandCategory2</text><text fill="#000000" font-family="sans-serif" font-size="14" lengthAdjust="spacing" textLength="180" x="1417" y="151.1426">Земли населенных пунктов</text><text fill="#000000" font-family="sans-serif" font-size="14" font-weight="bold" lengthAdjust="spacing" textLength="105" x="1304" y="168.752">LandCategory3</text><text fill="#000000" font-family="sans-serif" font-size="14" lengthAdjust="spacing" textLength="163" x="1417" y="168.752">Земли промышленности</text><line style="stroke:#000000;stroke-width:1.0;" x1="1300" x2="1702" y1="119" y2="119"/><line style="stroke:#000000;stroke-width:1.0;" x1="1300" x2="1702" y1="136.6094" y2="136.6094"/><line style="stroke:#000000;stroke-width:1.0;" x1="1300" x2="1702" y1="154.2188" y2="154.2188"/><line style="stroke:#000000;stroke-width:1.0;" x1="1300" x2="1702" y1="171.8281" y2="171.8281"/><line style="stroke:#000000;stroke-width:1.0;" x1="1300" x2="1300" y1="119" y2="171.8281"/><line style="stroke:#000000;stroke-width:1.0;" x1="1413" x2="1413" y1="119" y2="171.8281"/><line style="stroke:#000000;stroke-width:1.0;" x1="1702" x2="1702" y1="119" y2="171.8281"/></g><!--MD5=[d0cfdedff9d1b4c908cdc34c25d477af]
class AllowedUseType--><g id="elem_AllowedUseType"><rect codeLine="48" fill="#F1F1F1" height="137.0469" id="AllowedUseType" rx="2.5" ry="2.5" style="stroke:#181818;stroke-width:0.5;" width="235" x="1019.5" y="59.5"/><ellipse cx="1061.5" cy="75.5" fill="#EB937F" rx="11" ry="11" style="stroke:#181818;stroke-width:1.0;"/><path d="M1060.3594,76.2969 L1060.3594,78.7969 L1064.6875,78.7969 L1064.6875,77.875 Q1064.6875,77.2656 1064.9219,77 Q1065.1719,76.7344 1065.5469,76.7344 Q1065.9219,76.7344 1066.1563,77 Q1066.3906,77.2656 1066.3906,77.875 L1066.3906,80.5 L1058.3906,80.5 Q1057.7656,80.5 1057.5,80.2656 Q1057.25,80.0313 1057.25,79.6406 Q1057.25,79.2656 1057.5156,79.0313 Q1057.7813,78.7969 1058.3906,78.7969 L1058.6563,78.7969 L1058.6563,72.1406 L1058.3906,72.1406 Q1057.7656,72.1406 1057.5,71.9063 Q1057.25,71.6719 1057.25,71.2813 Q1057.25,70.9063 1057.5,70.6719 Q1057.7656,70.4375 1058.3906,70.4375 L1066.0156,70.4375 L1066.0156,73.0313 Q1066.0156,73.6406 1065.7813,73.9063 Q1065.5625,74.1563 1065.1719,74.1563 Q1064.7969,74.1563 1064.5625,73.9063 Q1064.3281,73.6406 1064.3281,73.0313 L1064.3281,72.1406 L1060.3594,72.1406 L1060.3594,74.5938 L1061.8438,74.5938 Q1061.8438,73.9375 1061.9688,73.75 Q1062.2344,73.3438 1062.7031,73.3438 Q1063.0781,73.3438 1063.3125,73.6094 Q1063.5469,73.8594 1063.5469,74.4688 L1063.5469,76.4375 Q1063.5469,76.9844 1063.4219,77.1719 Q1063.1563,77.5625 1062.7031,77.5625 Q1062.2344,77.5625 1061.9688,77.1563 Q1061.8438,76.9688 1061.8438,76.2969 L1060.3594,76.2969 Z " fill="#000000"/><text fill="#000000" font-family="sans-serif" font-size="14" lengthAdjust="spacing" textLength="143" x="1081.5" y="81.2285">AllowedUseType | ВРИ</text><line style="stroke:#181818;stroke-width:0.5;" x1="1020.5" x2="1253.5" y1="91.5" y2="91.5"/><text fill="#000000" font-family="sans-serif" font-size="14" font-weight="bold" lengthAdjust="spacing" textLength="68" x="1033.5" y="116.0332">UseType1</text><text fill="#000000" font-family="sans-serif" font-size="14" lengthAdjust="spacing" textLength="33" x="1109.5" y="116.0332">ИЖС</text><text fill="#000000" font-family="sans-serif" font-size="14" font-weight="bold" lengthAdjust="spacing" textLength="68" x="1033.5" y="133.6426">UseType2</text><text fill="#000000" font-family="sans-serif" font-size="14" lengthAdjust="spacing" textLength="26" x="1109.5" y="133.6426">ЛПХ</text><text fill="#000000" font-family="sans-serif" font-size="14" font-weight="bold" lengthAdjust="spacing" textLength="68" x="1033.5" y="151.252">UseType3</text><text fill="#000000" font-family="sans-serif" font-size="14" lengthAdjust="spacing" textLength="27" x="1109.5" y="151.252">КФХ</text><text fill="#000000" font-family="sans-serif" font-size="14" font-weight="bold" lengthAdjust="spacing" textLength="68" x="1033.5" y="168.8613">UseType4</text><text fill="#000000" font-family="sans-serif" font-size="14" lengthAdjust="spacing" textLength="131" x="1109.5" y="168.8613">Сельхозназначения</text><text fill="#000000" font-family="sans-serif" font-size="14" font-weight="bold" lengthAdjust="spacing" textLength="68" x="1033.5" y="186.4707">UseType5</text><text fill="#000000" font-family="sans-serif" font-size="14" lengthAdjust="spacing" textLength="112" x="1109.5" y="186.4707">Для садоводства</text><line style="stroke:#000000;stroke-width:1.0;" x1="1029.5" x2="1244.5" y1="101.5" y2="101.5"/><line style="stroke:#000000;stroke-width:1.0;" x1="1029.5" x2="1244.5" y1="119.1094" y2="119.1094"/><line style="stroke:#000000;stroke-width:1.0;" x1="1029.5" x2="1244.5" y1="136.7188" y2="136.7188"/><line style="stroke:#000000;stroke-width:1.0;" x1="1029.5" x2="1244.5" y1="154.3281" y2="154.3281"/><line style="stroke:#000000;stroke-width:1.0;" x1="1029.5" x2="1244.5" y1="171.9375" y2="171.9375"/><line style="stroke:#000000;stroke-width:1.0;" x1="1029.5" x2="1244.5" y1="189.5469" y2="189.5469"/><line style="stroke:#000000;stroke-width:1.0;" x1="1029.5" x2="1029.5" y1="101.5" y2="189.5469"/><line style="stroke:#000000;stroke-width:1.0;" x1="1105.5" x2="1105.5" y1="101.5" y2="189.5469"/><line style="stroke:#000000;stroke-width:1.0;" x1="1244.5" x2="1244.5" y1="101.5" y2="189.5469"/></g><!--MD5=[46c94d56f899661bbecb55a2c2011501]
class Village--><g id="elem_Village"><rect codeLine="8" fill="#F1F1F1" height="101.2188" id="Village" rx="2.5" ry="2.5" style="stroke:#181818;stroke-width:0.5;" width="180" x="7" y="77.5"/><ellipse cx="40" cy="93.5" fill="#ADD1B2" rx="11" ry="11" style="stroke:#181818;stroke-width:1.0;"/><path d="M38.8594,94.2969 L38.8594,96.7969 L43.1875,96.7969 L43.1875,95.875 Q43.1875,95.2656 43.4219,95 Q43.6719,94.7344 44.0469,94.7344 Q44.4219,94.7344 44.6563,95 Q44.8906,95.2656 44.8906,95.875 L44.8906,98.5 L36.8906,98.5 Q36.2656,98.5 36,98.2656 Q35.75,98.0313 35.75,97.6406 Q35.75,97.2656 36.0156,97.0313 Q36.2813,96.7969 36.8906,96.7969 L37.1563,96.7969 L37.1563,90.1406 L36.8906,90.1406 Q36.2656,90.1406 36,89.9063 Q35.75,89.6719 35.75,89.2813 Q35.75,88.9063 36,88.6719 Q36.2656,88.4375 36.8906,88.4375 L44.5156,88.4375 L44.5156,91.0313 Q44.5156,91.6406 44.2813,91.9063 Q44.0625,92.1563 43.6719,92.1563 Q43.2969,92.1563 43.0625,91.9063 Q42.8281,91.6406 42.8281,91.0313 L42.8281,90.1406 L38.8594,90.1406 L38.8594,92.5938 L40.3438,92.5938 Q40.3438,91.9375 40.4688,91.75 Q40.7344,91.3438 41.2031,91.3438 Q41.5781,91.3438 41.8125,91.6094 Q42.0469,91.8594 42.0469,92.4688 L42.0469,94.4375 Q42.0469,94.9844 41.9219,95.1719 Q41.6563,95.5625 41.2031,95.5625 Q40.7344,95.5625 40.4688,95.1563 Q40.3438,94.9688 40.3438,94.2969 L38.8594,94.2969 Z " fill="#000000"/><text fill="#000000" font-family="sans-serif" font-size="14" lengthAdjust="spacing" textLength="108" x="58" y="99.2285">Посёлок / Village</text><line style="stroke:#181818;stroke-width:0.5;" x1="8" x2="186" y1="109.5" y2="109.5"/><rect fill="#FF8080" height="17.6094" style="stroke:none;stroke-width:1.0;" width="35" x="17" y="119.5"/><text fill="#000000" font-family="sans-serif" font-size="14" lengthAdjust="spacing" textLength="27" x="21" y="134.0332">guid</text><text fill="#000000" font-family="sans-serif" font-size="14" font-weight="bold" lengthAdjust="spacing" textLength="13" x="56" y="134.0332">Id</text><text fill="#000000" font-family="sans-serif" font-size="14" lengthAdjust="spacing" textLength="68" x="77" y="134.0332">Id посёлка</text><line style="stroke:#000000;stroke-width:1.0;" x1="17" x2="149" y1="119.5" y2="119.5"/><line style="stroke:#000000;stroke-width:1.0;" x1="17" x2="149" y1="137.1094" y2="137.1094"/><line style="stroke:#000000;stroke-width:1.0;" x1="17" x2="17" y1="119.5" y2="137.1094"/><line style="stroke:#000000;stroke-width:1.0;" x1="52" x2="52" y1="119.5" y2="137.1094"/><line style="stroke:#000000;stroke-width:1.0;" x1="73" x2="73" y1="119.5" y2="137.1094"/><line style="stroke:#000000;stroke-width:1.0;" x1="149" x2="149" y1="119.5" y2="137.1094"/><line style="stroke:#181818;stroke-width:1.0;" x1="8" x2="186" y1="144.1094" y2="144.1094"/><rect fill="#FF8080" height="17.6094" style="stroke:none;stroke-width:1.0;" width="43" x="17" y="154.1094"/><text fill="#000000" font-family="sans-serif" font-size="14" lengthAdjust="spacing" textLength="35" x="21" y="168.6426">string</text><text fill="#000000" font-family="sans-serif" font-size="14" font-weight="bold" lengthAdjust="spacing" textLength="39" x="64" y="168.6426">Name</text><text fill="#000000" font-family="sans-serif" font-size="14" lengthAdjust="spacing" textLength="62" x="111" y="168.6426">Название</text><line style="stroke:#000000;stroke-width:1.0;" x1="17" x2="177" y1="154.1094" y2="154.1094"/><line style="stroke:#000000;stroke-width:1.0;" x1="17" x2="177" y1="171.7188" y2="171.7188"/><line style="stroke:#000000;stroke-width:1.0;" x1="17" x2="17" y1="154.1094" y2="171.7188"/><line style="stroke:#000000;stroke-width:1.0;" x1="60" x2="60" y1="154.1094" y2="171.7188"/><line style="stroke:#000000;stroke-width:1.0;" x1="107" x2="107" y1="154.1094" y2="171.7188"/><line style="stroke:#000000;stroke-width:1.0;" x1="177" x2="177" y1="154.1094" y2="171.7188"/></g><!--MD5=[c16291e97e7bfe1e6fd9421b062658e4]
link LandName to Land--><g id="link_LandName_Land"><path codeLine="58" d="M728,205.51 C728,227.58 728,251.61 728,273.65 " fill="none" id="LandName-Land" style="stroke:#181818;stroke-width:1.0;"/><polygon fill="#000000" points="683,225.7558,680.0611,234.8009,685.9389,234.8009,683,225.7558" style="stroke:#000000;stroke-width:1.0;"/><text fill="#000000" font-family="sans-serif" font-size="13" lengthAdjust="spacing" textLength="35" x="692" y="236.0751">имеет</text></g><!--MD5=[93bd0a0387ac36762c2c63a5357df6b4]
link Village to Land--><g id="link_Village_Land"><path codeLine="5" d="M97,178.6 C97,244.4 97,351 97,351 C97,351 263,351 402.74,351 " fill="none" id="Village-Land" style="stroke:#181818;stroke-width:1.0;"/><text fill="#000000" font-family="sans-serif" font-size="13" lengthAdjust="spacing" textLength="39" x="55.2578" y="200.3451">&lt;&lt;1&gt;&gt;</text><text fill="#000000" font-family="sans-serif" font-size="13" lengthAdjust="spacing" textLength="67" x="327.7346" y="348.224">&lt;&lt;много&gt;&gt;</text></g><!--MD5=[f070e5cbcdfc3002ddb977f4ee725ac3]
@startuml

skinparam linetype ortho

!includesub village.puml!Main

package Context
{
    !startsub Main
    entity "Land | Участок " as Land {
        |<#FF8080> guid |= Id | Id участка |
        - -
        | guid |= VillageId | Id посёлка |
        - -
        |<#FF8080>  LandName |= Name | Название участка |
        |<#FF8080>  LandCadastreData |= CadastreData | Кадастр участка |
    }
    !endsub

    struct "LandName | Название участка" as LandName {
        |<#FF8080> bool |= IsEmpty | Пустые данные |
        | int |= Number | Номер |
        | int |= PrefixDigit | Цифра префикса |
        | string |= PrefixLetter | Буква префикса |
        | int |= PostfixDigit | Цифра постфикса |
        | string |= PostfixLetter | Буква постфикса |
    }

    struct "LandCadastreData | Кадастр участка" as LandCadastreData {
        |<#FF8080> bool |= IsEmpty | Пустые данные |
        | string |= CadastreNumber | Номер кадастра |
        | decimal |= Area | Площадь |
        | string |= Address | Адрес |
        | enum:AllowedUseType |= AllowedUseType | ВРИ |
        | decimal |= Cost | Стоимость |
        | enum:LandCategory |= LandCategory | Категория земли |
    }
} 


package enums 
{
    enum "LandCategory | Категория земли" as LandCategory {
        |= LandCategory1 | Земли сельскохозяйственного назначения |
        |= LandCategory2 | Земли населенных пунктов |
        |= LandCategory3 | Земли промышленности |
    }

    enum "AllowedUseType | ВРИ" as AllowedUseType {
        |= UseType1 | ИЖС |
        |= UseType2 | ЛПХ |
        |= UseType3 | КФХ |
        |= UseType4 | Сельхозназначения |
        |= UseType5 | Для садоводства |
    }
}


LandName - - Land : < имеет

!includesub relations.puml!Land

@enduml

@startuml

skinparam linetype ortho

    entity "Посёлок / Village" as Village {
        |<#FF8080> guid |= Id | Id посёлка |
        - -
        |<#FF8080> string |= Name | Название |
    }

package Context
{
    entity "Land | Участок " as Land {
        |<#FF8080> guid |= Id | Id участка |
        - -
        | guid |= VillageId | Id посёлка |
        - -
        |<#FF8080>  LandName |= Name | Название участка |
        |<#FF8080>  LandCadastreData |= CadastreData | Кадастр участка |
    }

    struct "LandName | Название участка" as LandName {
        |<#FF8080> bool |= IsEmpty | Пустые данные |
        | int |= Number | Номер |
        | int |= PrefixDigit | Цифра префикса |
        | string |= PrefixLetter | Буква префикса |
        | int |= PostfixDigit | Цифра постфикса |
        | string |= PostfixLetter | Буква постфикса |
    }

    struct "LandCadastreData | Кадастр участка" as LandCadastreData {
        |<#FF8080> bool |= IsEmpty | Пустые данные |
        | string |= CadastreNumber | Номер кадастра |
        | decimal |= Area | Площадь |
        | string |= Address | Адрес |
        | enum:AllowedUseType |= AllowedUseType | ВРИ |
        | decimal |= Cost | Стоимость |
        | enum:LandCategory |= LandCategory | Категория земли |
    }
} 


package enums 
{
    enum "LandCategory | Категория земли" as LandCategory {
        |= LandCategory1 | Земли сельскохозяйственного назначения |
        |= LandCategory2 | Земли населенных пунктов |
        |= LandCategory3 | Земли промышленности |
    }

    enum "AllowedUseType | ВРИ" as AllowedUseType {
        |= UseType1 | ИЖС |
        |= UseType2 | ЛПХ |
        |= UseType3 | КФХ |
        |= UseType4 | Сельхозназначения |
        |= UseType5 | Для садоводства |
    }
}


LandName - - Land : < имеет

Village "<<1>>" - - "<<много>>" Land

@enduml

PlantUML version 1.2022.7(Mon Aug 22 20:01:30 MSK 2022)
(GPL source distribution)
Java Runtime: Java(TM) SE Runtime Environment
JVM: Java HotSpot(TM) 64-Bit Server VM
Default Encoding: UTF-8
Language: en
Country: US
--></g></svg>