<?xml version="1.0" encoding="UTF-8" standalone="no"?><svg xmlns="http://www.w3.org/2000/svg" xmlns:xlink="http://www.w3.org/1999/xlink" contentStyleType="text/css" height="777px" preserveAspectRatio="none" style="width:801px;height:777px;background:#FFFFFF;" version="1.1" viewBox="0 0 801 777" width="801px" zoomAndPan="magnify"><defs/><g><!--MD5=[834e98962f20b09c78cd8e6ce75813d5]
cluster Context--><g id="cluster_Context"><path d="M145.5,6 L201.5,6 A3.75,3.75 0 0 1 204,8.5 L211,29.6094 L791.5,29.6094 A2.5,2.5 0 0 1 794,32.1094 L794,211.5 A2.5,2.5 0 0 1 791.5,214 L145.5,214 A2.5,2.5 0 0 1 143,211.5 L143,8.5 A2.5,2.5 0 0 1 145.5,6 " fill="none" style="stroke:#000000;stroke-width:1.5;"/><line style="stroke:#000000;stroke-width:1.5;" x1="143" x2="211" y1="29.6094" y2="29.6094"/><text fill="#000000" font-family="sans-serif" font-size="14" font-weight="bold" lengthAdjust="spacing" textLength="55" x="147" y="22.5332">Context</text></g><!--MD5=[214f86a9dafbae6c46d567e000b52958]
cluster Counterparty--><g id="cluster_Counterparty"><path d="M8.5,238 L101.5,238 A3.75,3.75 0 0 1 104,240.5 L111,261.6094 L620.5,261.6094 A2.5,2.5 0 0 1 623,264.1094 L623,767.5 A2.5,2.5 0 0 1 620.5,770 L8.5,770 A2.5,2.5 0 0 1 6,767.5 L6,240.5 A2.5,2.5 0 0 1 8.5,238 " fill="none" style="stroke:#000000;stroke-width:1.5;"/><line style="stroke:#000000;stroke-width:1.5;" x1="6" x2="111" y1="261.6094" y2="261.6094"/><text fill="#000000" font-family="sans-serif" font-size="14" font-weight="bold" lengthAdjust="spacing" textLength="92" x="10" y="254.5332">Counterparty</text></g><!--MD5=[81434b43915f2a3947ac0240a4263c7f]
class PersonIdentity--><g id="elem_PersonIdentity"><rect codeLine="8" fill="#F1F1F1" height="48" id="PersonIdentity" rx="2.5" ry="2.5" style="stroke:#181818;stroke-width:0.5;" width="167" x="391.5" y="150"/><ellipse cx="406.5" cy="166" fill="#ADD1B2" rx="11" ry="11" style="stroke:#181818;stroke-width:1.0;"/><path d="M405.3594,166.7969 L405.3594,169.2969 L409.6875,169.2969 L409.6875,168.375 Q409.6875,167.7656 409.9219,167.5 Q410.1719,167.2344 410.5469,167.2344 Q410.9219,167.2344 411.1563,167.5 Q411.3906,167.7656 411.3906,168.375 L411.3906,171 L403.3906,171 Q402.7656,171 402.5,170.7656 Q402.25,170.5313 402.25,170.1406 Q402.25,169.7656 402.5156,169.5313 Q402.7813,169.2969 403.3906,169.2969 L403.6563,169.2969 L403.6563,162.6406 L403.3906,162.6406 Q402.7656,162.6406 402.5,162.4063 Q402.25,162.1719 402.25,161.7813 Q402.25,161.4063 402.5,161.1719 Q402.7656,160.9375 403.3906,160.9375 L411.0156,160.9375 L411.0156,163.5313 Q411.0156,164.1406 410.7813,164.4063 Q410.5625,164.6563 410.1719,164.6563 Q409.7969,164.6563 409.5625,164.4063 Q409.3281,164.1406 409.3281,163.5313 L409.3281,162.6406 L405.3594,162.6406 L405.3594,165.0938 L406.8438,165.0938 Q406.8438,164.4375 406.9688,164.25 Q407.2344,163.8438 407.7031,163.8438 Q408.0781,163.8438 408.3125,164.1094 Q408.5469,164.3594 408.5469,164.9688 L408.5469,166.9375 Q408.5469,167.4844 408.4219,167.6719 Q408.1563,168.0625 407.7031,168.0625 Q407.2344,168.0625 406.9688,167.6563 Q406.8438,167.4688 406.8438,166.7969 L405.3594,166.7969 Z " fill="#000000"/><text fill="#000000" font-family="sans-serif" font-size="14" lengthAdjust="spacing" textLength="135" x="420.5" y="171.7285">PersonIdentity | Лицо</text><line style="stroke:#181818;stroke-width:0.5;" x1="392.5" x2="557.5" y1="182" y2="182"/><line style="stroke:#181818;stroke-width:0.5;" x1="392.5" x2="557.5" y1="190" y2="190"/></g><!--MD5=[1a803e7fddf96bdef154aceacca0ad15]
class PersonContact--><g id="elem_PersonContact"><rect codeLine="12" fill="#F1F1F1" height="48" id="PersonContact" rx="2.5" ry="2.5" style="stroke:#181818;stroke-width:0.5;" width="226" x="552" y="42"/><ellipse cx="567" cy="58" fill="#F1F1F1" rx="11" ry="11" style="stroke:#181818;stroke-width:1.0;"/><path d="M565.1094,62.5625 Q564.8906,62.8281 564.75,62.9063 Q564.6094,62.9844 564.4219,62.9844 Q564.0313,62.9844 563.7813,62.7188 Q563.5469,62.4531 563.5469,61.8594 L563.5469,60.7031 Q563.5469,60.0938 563.7813,59.8438 Q564.0313,59.5781 564.4219,59.5781 Q564.7188,59.5781 564.9219,59.7344 Q565.125,59.8906 565.2344,60.2656 Q565.3438,60.625 565.4531,60.7656 Q565.7031,61.0156 566.3125,61.2813 Q566.9219,61.5469 567.6563,61.5469 Q568.7969,61.5469 569.5156,61.0156 Q569.9844,60.6875 569.9844,60.2188 Q569.9844,59.9063 569.7656,59.625 Q569.5469,59.3438 569.0313,59.1719 Q568.7031,59.0469 567.5469,58.8281 Q566.1563,58.5625 565.4375,58.2031 Q564.7188,57.8438 564.2969,57.1875 Q563.8906,56.5156 563.8906,55.7344 Q563.8906,54.5156 564.9063,53.6094 Q565.9375,52.6875 567.5781,52.6875 Q568.2344,52.6875 568.7813,52.8281 Q569.3438,52.9688 569.8125,53.2656 Q570.1406,52.9531 570.4688,52.9531 Q570.8438,52.9531 571.0781,53.2188 Q571.3125,53.4688 571.3125,54.0781 L571.3125,55.3594 Q571.3125,55.9688 571.0781,56.2344 Q570.8438,56.4844 570.4688,56.4844 Q570.1563,56.4844 569.9219,56.2969 Q569.7344,56.1563 569.6406,55.7344 Q569.5625,55.3125 569.4219,55.125 Q569.1719,54.8125 568.6875,54.6094 Q568.2188,54.3906 567.5781,54.3906 Q566.6563,54.3906 566.125,54.8125 Q565.5938,55.2344 565.5938,55.7031 Q565.5938,56.0156 565.8125,56.3125 Q566.0313,56.6094 566.4531,56.7813 Q566.7344,56.8906 568.0313,57.1563 Q569.3438,57.4063 570.0469,57.7188 Q570.75,58.0156 571.2188,58.6719 Q571.6875,59.3281 571.6875,60.2344 Q571.6875,61.5 570.7969,62.25 Q569.6094,63.25 567.7813,63.25 Q567.0781,63.25 566.4063,63.0781 Q565.75,62.9063 565.1094,62.5625 Z " fill="#000000"/><text fill="#000000" font-family="sans-serif" font-size="14" lengthAdjust="spacing" textLength="194" x="581" y="63.7285">PersonContact | Контакт лица</text><line style="stroke:#181818;stroke-width:0.5;" x1="553" x2="777" y1="74" y2="74"/><line style="stroke:#181818;stroke-width:0.5;" x1="553" x2="777" y1="82" y2="82"/></g><!--MD5=[dfdea123908613e82c04e4b20fb37d50]
class PersonIdentitySocialRating--><g id="elem_PersonIdentitySocialRating"><rect codeLine="15" fill="#F1F1F1" height="48" id="PersonIdentitySocialRating" rx="2.5" ry="2.5" style="stroke:#181818;stroke-width:0.5;" width="357" x="159.5" y="42"/><ellipse cx="174.5" cy="58" fill="#F1F1F1" rx="11" ry="11" style="stroke:#181818;stroke-width:1.0;"/><path d="M172.6094,62.5625 Q172.3906,62.8281 172.25,62.9063 Q172.1094,62.9844 171.9219,62.9844 Q171.5313,62.9844 171.2813,62.7188 Q171.0469,62.4531 171.0469,61.8594 L171.0469,60.7031 Q171.0469,60.0938 171.2813,59.8438 Q171.5313,59.5781 171.9219,59.5781 Q172.2188,59.5781 172.4219,59.7344 Q172.625,59.8906 172.7344,60.2656 Q172.8438,60.625 172.9531,60.7656 Q173.2031,61.0156 173.8125,61.2813 Q174.4219,61.5469 175.1563,61.5469 Q176.2969,61.5469 177.0156,61.0156 Q177.4844,60.6875 177.4844,60.2188 Q177.4844,59.9063 177.2656,59.625 Q177.0469,59.3438 176.5313,59.1719 Q176.2031,59.0469 175.0469,58.8281 Q173.6563,58.5625 172.9375,58.2031 Q172.2188,57.8438 171.7969,57.1875 Q171.3906,56.5156 171.3906,55.7344 Q171.3906,54.5156 172.4063,53.6094 Q173.4375,52.6875 175.0781,52.6875 Q175.7344,52.6875 176.2813,52.8281 Q176.8438,52.9688 177.3125,53.2656 Q177.6406,52.9531 177.9688,52.9531 Q178.3438,52.9531 178.5781,53.2188 Q178.8125,53.4688 178.8125,54.0781 L178.8125,55.3594 Q178.8125,55.9688 178.5781,56.2344 Q178.3438,56.4844 177.9688,56.4844 Q177.6563,56.4844 177.4219,56.2969 Q177.2344,56.1563 177.1406,55.7344 Q177.0625,55.3125 176.9219,55.125 Q176.6719,54.8125 176.1875,54.6094 Q175.7188,54.3906 175.0781,54.3906 Q174.1563,54.3906 173.625,54.8125 Q173.0938,55.2344 173.0938,55.7031 Q173.0938,56.0156 173.3125,56.3125 Q173.5313,56.6094 173.9531,56.7813 Q174.2344,56.8906 175.5313,57.1563 Q176.8438,57.4063 177.5469,57.7188 Q178.25,58.0156 178.7188,58.6719 Q179.1875,59.3281 179.1875,60.2344 Q179.1875,61.5 178.2969,62.25 Q177.1094,63.25 175.2813,63.25 Q174.5781,63.25 173.9063,63.0781 Q173.25,62.9063 172.6094,62.5625 Z " fill="#000000"/><text fill="#000000" font-family="sans-serif" font-size="14" lengthAdjust="spacing" textLength="325" x="188.5" y="63.7285">PersonIdentitySocialRating |  Социальный рейтинг</text><line style="stroke:#181818;stroke-width:0.5;" x1="160.5" x2="515.5" y1="74" y2="74"/><line style="stroke:#181818;stroke-width:0.5;" x1="160.5" x2="515.5" y1="82" y2="82"/></g><!--MD5=[de13a1d4b7bcb23870f8953e23307157]
class PersonCounterparty--><g id="elem_PersonCounterparty"><rect codeLine="21" fill="#F1F1F1" height="48" id="PersonCounterparty" rx="2.5" ry="2.5" style="stroke:#181818;stroke-width:0.5;" width="263" x="343.5" y="274"/><ellipse cx="358.5" cy="290" fill="#ADD1B2" rx="11" ry="11" style="stroke:#181818;stroke-width:1.0;"/><path d="M357.3594,290.7969 L357.3594,293.2969 L361.6875,293.2969 L361.6875,292.375 Q361.6875,291.7656 361.9219,291.5 Q362.1719,291.2344 362.5469,291.2344 Q362.9219,291.2344 363.1563,291.5 Q363.3906,291.7656 363.3906,292.375 L363.3906,295 L355.3906,295 Q354.7656,295 354.5,294.7656 Q354.25,294.5313 354.25,294.1406 Q354.25,293.7656 354.5156,293.5313 Q354.7813,293.2969 355.3906,293.2969 L355.6563,293.2969 L355.6563,286.6406 L355.3906,286.6406 Q354.7656,286.6406 354.5,286.4063 Q354.25,286.1719 354.25,285.7813 Q354.25,285.4063 354.5,285.1719 Q354.7656,284.9375 355.3906,284.9375 L363.0156,284.9375 L363.0156,287.5313 Q363.0156,288.1406 362.7813,288.4063 Q362.5625,288.6563 362.1719,288.6563 Q361.7969,288.6563 361.5625,288.4063 Q361.3281,288.1406 361.3281,287.5313 L361.3281,286.6406 L357.3594,286.6406 L357.3594,289.0938 L358.8438,289.0938 Q358.8438,288.4375 358.9688,288.25 Q359.2344,287.8438 359.7031,287.8438 Q360.0781,287.8438 360.3125,288.1094 Q360.5469,288.3594 360.5469,288.9688 L360.5469,290.9375 Q360.5469,291.4844 360.4219,291.6719 Q360.1563,292.0625 359.7031,292.0625 Q359.2344,292.0625 358.9688,291.6563 Q358.8438,291.4688 358.8438,290.7969 L357.3594,290.7969 Z " fill="#000000"/><text fill="#000000" font-family="sans-serif" font-size="14" lengthAdjust="spacing" textLength="231" x="372.5" y="295.7285">PersonCounterparty | Паспорт лица</text><line style="stroke:#181818;stroke-width:0.5;" x1="344.5" x2="605.5" y1="306" y2="306"/><line style="stroke:#181818;stroke-width:0.5;" x1="344.5" x2="605.5" y1="314" y2="314"/></g><!--MD5=[5eedaa2ab84795e91b9d46c8200b6d6f]
class PersonRussianPassportIdentityDocument--><g id="elem_PersonRussianPassportIdentityDocument"><rect codeLine="25" fill="#F1F1F1" height="48" id="PersonRussianPassportIdentityDocument" rx="2.5" ry="2.5" style="stroke:#181818;stroke-width:0.5;" width="383" x="78.5" y="382"/><ellipse cx="93.5" cy="398" fill="#F1F1F1" rx="11" ry="11" style="stroke:#181818;stroke-width:1.0;"/><path d="M91.6094,402.5625 Q91.3906,402.8281 91.25,402.9063 Q91.1094,402.9844 90.9219,402.9844 Q90.5313,402.9844 90.2813,402.7188 Q90.0469,402.4531 90.0469,401.8594 L90.0469,400.7031 Q90.0469,400.0938 90.2813,399.8438 Q90.5313,399.5781 90.9219,399.5781 Q91.2188,399.5781 91.4219,399.7344 Q91.625,399.8906 91.7344,400.2656 Q91.8438,400.625 91.9531,400.7656 Q92.2031,401.0156 92.8125,401.2813 Q93.4219,401.5469 94.1563,401.5469 Q95.2969,401.5469 96.0156,401.0156 Q96.4844,400.6875 96.4844,400.2188 Q96.4844,399.9063 96.2656,399.625 Q96.0469,399.3438 95.5313,399.1719 Q95.2031,399.0469 94.0469,398.8281 Q92.6563,398.5625 91.9375,398.2031 Q91.2188,397.8438 90.7969,397.1875 Q90.3906,396.5156 90.3906,395.7344 Q90.3906,394.5156 91.4063,393.6094 Q92.4375,392.6875 94.0781,392.6875 Q94.7344,392.6875 95.2813,392.8281 Q95.8438,392.9688 96.3125,393.2656 Q96.6406,392.9531 96.9688,392.9531 Q97.3438,392.9531 97.5781,393.2188 Q97.8125,393.4688 97.8125,394.0781 L97.8125,395.3594 Q97.8125,395.9688 97.5781,396.2344 Q97.3438,396.4844 96.9688,396.4844 Q96.6563,396.4844 96.4219,396.2969 Q96.2344,396.1563 96.1406,395.7344 Q96.0625,395.3125 95.9219,395.125 Q95.6719,394.8125 95.1875,394.6094 Q94.7188,394.3906 94.0781,394.3906 Q93.1563,394.3906 92.625,394.8125 Q92.0938,395.2344 92.0938,395.7031 Q92.0938,396.0156 92.3125,396.3125 Q92.5313,396.6094 92.9531,396.7813 Q93.2344,396.8906 94.5313,397.1563 Q95.8438,397.4063 96.5469,397.7188 Q97.25,398.0156 97.7188,398.6719 Q98.1875,399.3281 98.1875,400.2344 Q98.1875,401.5 97.2969,402.25 Q96.1094,403.25 94.2813,403.25 Q93.5781,403.25 92.9063,403.0781 Q92.25,402.9063 91.6094,402.5625 Z " fill="#000000"/><text fill="#000000" font-family="sans-serif" font-size="14" lengthAdjust="spacing" textLength="351" x="107.5" y="403.7285">PersonRussianPassportIdentityDocument | Паспорт РФ</text><line style="stroke:#181818;stroke-width:0.5;" x1="79.5" x2="460.5" y1="414" y2="414"/><line style="stroke:#181818;stroke-width:0.5;" x1="79.5" x2="460.5" y1="422" y2="422"/></g><!--MD5=[2612471a0dbd0e8e1c542ebaa4dc1456]
class PersonForeignPassportIdentityDocument--><g id="elem_PersonForeignPassportIdentityDocument"><rect codeLine="29" fill="#F1F1F1" height="48" id="PersonForeignPassportIdentityDocument" rx="2.5" ry="2.5" style="stroke:#181818;stroke-width:0.5;" width="450" x="49" y="490"/><ellipse cx="64" cy="506" fill="#F1F1F1" rx="11" ry="11" style="stroke:#181818;stroke-width:1.0;"/><path d="M62.1094,510.5625 Q61.8906,510.8281 61.75,510.9063 Q61.6094,510.9844 61.4219,510.9844 Q61.0313,510.9844 60.7813,510.7188 Q60.5469,510.4531 60.5469,509.8594 L60.5469,508.7031 Q60.5469,508.0938 60.7813,507.8438 Q61.0313,507.5781 61.4219,507.5781 Q61.7188,507.5781 61.9219,507.7344 Q62.125,507.8906 62.2344,508.2656 Q62.3438,508.625 62.4531,508.7656 Q62.7031,509.0156 63.3125,509.2813 Q63.9219,509.5469 64.6563,509.5469 Q65.7969,509.5469 66.5156,509.0156 Q66.9844,508.6875 66.9844,508.2188 Q66.9844,507.9063 66.7656,507.625 Q66.5469,507.3438 66.0313,507.1719 Q65.7031,507.0469 64.5469,506.8281 Q63.1563,506.5625 62.4375,506.2031 Q61.7188,505.8438 61.2969,505.1875 Q60.8906,504.5156 60.8906,503.7344 Q60.8906,502.5156 61.9063,501.6094 Q62.9375,500.6875 64.5781,500.6875 Q65.2344,500.6875 65.7813,500.8281 Q66.3438,500.9688 66.8125,501.2656 Q67.1406,500.9531 67.4688,500.9531 Q67.8438,500.9531 68.0781,501.2188 Q68.3125,501.4688 68.3125,502.0781 L68.3125,503.3594 Q68.3125,503.9688 68.0781,504.2344 Q67.8438,504.4844 67.4688,504.4844 Q67.1563,504.4844 66.9219,504.2969 Q66.7344,504.1563 66.6406,503.7344 Q66.5625,503.3125 66.4219,503.125 Q66.1719,502.8125 65.6875,502.6094 Q65.2188,502.3906 64.5781,502.3906 Q63.6563,502.3906 63.125,502.8125 Q62.5938,503.2344 62.5938,503.7031 Q62.5938,504.0156 62.8125,504.3125 Q63.0313,504.6094 63.4531,504.7813 Q63.7344,504.8906 65.0313,505.1563 Q66.3438,505.4063 67.0469,505.7188 Q67.75,506.0156 68.2188,506.6719 Q68.6875,507.3281 68.6875,508.2344 Q68.6875,509.5 67.7969,510.25 Q66.6094,511.25 64.7813,511.25 Q64.0781,511.25 63.4063,511.0781 Q62.75,510.9063 62.1094,510.5625 Z " fill="#000000"/><text fill="#000000" font-family="sans-serif" font-size="14" lengthAdjust="spacing" textLength="418" x="78" y="511.7285">PersonForeignPassportIdentityDocument | Иностранный паспорт</text><line style="stroke:#181818;stroke-width:0.5;" x1="50" x2="498" y1="522" y2="522"/><line style="stroke:#181818;stroke-width:0.5;" x1="50" x2="498" y1="530" y2="530"/></g><!--MD5=[058d002ef8c4c0cfef4628c20eb9c72f]
class PersonRussianBirthCertificateIdentityDocument--><g id="elem_PersonRussianBirthCertificateIdentityDocument"><rect codeLine="33" fill="#F1F1F1" height="48" id="PersonRussianBirthCertificateIdentityDocument" rx="2.5" ry="2.5" style="stroke:#181818;stroke-width:0.5;" width="547" x="22.5" y="598"/><ellipse cx="37.5" cy="614" fill="#F1F1F1" rx="11" ry="11" style="stroke:#181818;stroke-width:1.0;"/><path d="M35.6094,618.5625 Q35.3906,618.8281 35.25,618.9063 Q35.1094,618.9844 34.9219,618.9844 Q34.5313,618.9844 34.2813,618.7188 Q34.0469,618.4531 34.0469,617.8594 L34.0469,616.7031 Q34.0469,616.0938 34.2813,615.8438 Q34.5313,615.5781 34.9219,615.5781 Q35.2188,615.5781 35.4219,615.7344 Q35.625,615.8906 35.7344,616.2656 Q35.8438,616.625 35.9531,616.7656 Q36.2031,617.0156 36.8125,617.2813 Q37.4219,617.5469 38.1563,617.5469 Q39.2969,617.5469 40.0156,617.0156 Q40.4844,616.6875 40.4844,616.2188 Q40.4844,615.9063 40.2656,615.625 Q40.0469,615.3438 39.5313,615.1719 Q39.2031,615.0469 38.0469,614.8281 Q36.6563,614.5625 35.9375,614.2031 Q35.2188,613.8438 34.7969,613.1875 Q34.3906,612.5156 34.3906,611.7344 Q34.3906,610.5156 35.4063,609.6094 Q36.4375,608.6875 38.0781,608.6875 Q38.7344,608.6875 39.2813,608.8281 Q39.8438,608.9688 40.3125,609.2656 Q40.6406,608.9531 40.9688,608.9531 Q41.3438,608.9531 41.5781,609.2188 Q41.8125,609.4688 41.8125,610.0781 L41.8125,611.3594 Q41.8125,611.9688 41.5781,612.2344 Q41.3438,612.4844 40.9688,612.4844 Q40.6563,612.4844 40.4219,612.2969 Q40.2344,612.1563 40.1406,611.7344 Q40.0625,611.3125 39.9219,611.125 Q39.6719,610.8125 39.1875,610.6094 Q38.7188,610.3906 38.0781,610.3906 Q37.1563,610.3906 36.625,610.8125 Q36.0938,611.2344 36.0938,611.7031 Q36.0938,612.0156 36.3125,612.3125 Q36.5313,612.6094 36.9531,612.7813 Q37.2344,612.8906 38.5313,613.1563 Q39.8438,613.4063 40.5469,613.7188 Q41.25,614.0156 41.7188,614.6719 Q42.1875,615.3281 42.1875,616.2344 Q42.1875,617.5 41.2969,618.25 Q40.1094,619.25 38.2813,619.25 Q37.5781,619.25 36.9063,619.0781 Q36.25,618.9063 35.6094,618.5625 Z " fill="#000000"/><text fill="#000000" font-family="sans-serif" font-size="14" lengthAdjust="spacing" textLength="515" x="51.5" y="619.7285">PersonRussianBirthCertificateIdentityDocument | Свидетельство о рождении РФ</text><line style="stroke:#181818;stroke-width:0.5;" x1="23.5" x2="568.5" y1="630" y2="630"/><line style="stroke:#181818;stroke-width:0.5;" x1="23.5" x2="568.5" y1="638" y2="638"/></g><!--MD5=[4a64804807522abe8c276480dadf84f4]
class PersonRussianResidencePermitIdentityDocument--><g id="elem_PersonRussianResidencePermitIdentityDocument"><rect codeLine="37" fill="#F1F1F1" height="48" id="PersonRussianResidencePermitIdentityDocument" rx="2.5" ry="2.5" style="stroke:#181818;stroke-width:0.5;" width="410" x="144" y="706"/><ellipse cx="159" cy="722" fill="#F1F1F1" rx="11" ry="11" style="stroke:#181818;stroke-width:1.0;"/><path d="M157.1094,726.5625 Q156.8906,726.8281 156.75,726.9063 Q156.6094,726.9844 156.4219,726.9844 Q156.0313,726.9844 155.7813,726.7188 Q155.5469,726.4531 155.5469,725.8594 L155.5469,724.7031 Q155.5469,724.0938 155.7813,723.8438 Q156.0313,723.5781 156.4219,723.5781 Q156.7188,723.5781 156.9219,723.7344 Q157.125,723.8906 157.2344,724.2656 Q157.3438,724.625 157.4531,724.7656 Q157.7031,725.0156 158.3125,725.2813 Q158.9219,725.5469 159.6563,725.5469 Q160.7969,725.5469 161.5156,725.0156 Q161.9844,724.6875 161.9844,724.2188 Q161.9844,723.9063 161.7656,723.625 Q161.5469,723.3438 161.0313,723.1719 Q160.7031,723.0469 159.5469,722.8281 Q158.1563,722.5625 157.4375,722.2031 Q156.7188,721.8438 156.2969,721.1875 Q155.8906,720.5156 155.8906,719.7344 Q155.8906,718.5156 156.9063,717.6094 Q157.9375,716.6875 159.5781,716.6875 Q160.2344,716.6875 160.7813,716.8281 Q161.3438,716.9688 161.8125,717.2656 Q162.1406,716.9531 162.4688,716.9531 Q162.8438,716.9531 163.0781,717.2188 Q163.3125,717.4688 163.3125,718.0781 L163.3125,719.3594 Q163.3125,719.9688 163.0781,720.2344 Q162.8438,720.4844 162.4688,720.4844 Q162.1563,720.4844 161.9219,720.2969 Q161.7344,720.1563 161.6406,719.7344 Q161.5625,719.3125 161.4219,719.125 Q161.1719,718.8125 160.6875,718.6094 Q160.2188,718.3906 159.5781,718.3906 Q158.6563,718.3906 158.125,718.8125 Q157.5938,719.2344 157.5938,719.7031 Q157.5938,720.0156 157.8125,720.3125 Q158.0313,720.6094 158.4531,720.7813 Q158.7344,720.8906 160.0313,721.1563 Q161.3438,721.4063 162.0469,721.7188 Q162.75,722.0156 163.2188,722.6719 Q163.6875,723.3281 163.6875,724.2344 Q163.6875,725.5 162.7969,726.25 Q161.6094,727.25 159.7813,727.25 Q159.0781,727.25 158.4063,727.0781 Q157.75,726.9063 157.1094,726.5625 Z " fill="#000000"/><text fill="#000000" font-family="sans-serif" font-size="14" lengthAdjust="spacing" textLength="378" x="173" y="727.7285">PersonRussianResidencePermitIdentityDocument | ВНЖ РФ</text><line style="stroke:#181818;stroke-width:0.5;" x1="145" x2="553" y1="738" y2="738"/><line style="stroke:#181818;stroke-width:0.5;" x1="145" x2="553" y1="746" y2="746"/></g><!--MD5=[70304fcfbdf07e50b6889b4125f447a8]
link PersonIdentity to PersonCounterparty--><!--MD5=[9926586daf7c875c2cc4e12e5b5a4477]
link PersonCounterparty to PersonIdentity--><g id="link_PersonCounterparty_PersonIdentity"><path codeLine="50" d="M447.17,273.8 C447.17,251.95 447.17,219.97 447.17,198.14 " fill="none" id="PersonCounterparty-PersonIdentity" style="stroke:#181818;stroke-width:1.0;"/><polygon fill="#000000" points="402.17,232.1458,405.1089,223.1007,399.2311,223.1007,402.17,232.1458" style="stroke:#000000;stroke-width:1.0;"/><text fill="#000000" font-family="sans-serif" font-size="13" lengthAdjust="spacing" textLength="35" x="411.17" y="232.4651">имеет</text><text fill="#008000" font-family="sans-serif" font-size="13" font-weight="bold" lengthAdjust="spacing" textLength="39" x="396.0417" y="263.0889">&lt;&lt;1&gt;&gt;</text><text fill="#008000" font-family="sans-serif" font-size="13" font-weight="bold" lengthAdjust="spacing" textLength="39" x="396.6333" y="219.5121">&lt;&lt;1&gt;&gt;</text></g><!--MD5=[4e61f2d1498886cfe20037b8d8338c91]
link PersonCounterparty to PersonRussianPassportIdentityDocument--><!--MD5=[2b605988941fa981d6b6413e8f10b8bb]
link PersonRussianPassportIdentityDocument to PersonCounterparty--><g id="link_PersonRussianPassportIdentityDocument_PersonCounterparty"><path codeLine="51" d="M422.17,381.76 C422.17,363.98 422.17,339.92 422.17,322.16 " fill="none" id="PersonRussianPassportIdentityDocument-PersonCounterparty" style="stroke:#181818;stroke-width:1.0;"/><polygon fill="#000000" points="427.17,348.1358,430.1089,339.0907,424.2311,339.0907,427.17,348.1358" style="stroke:#000000;stroke-width:1.0;"/><text fill="#000000" font-family="sans-serif" font-size="13" lengthAdjust="spacing" textLength="35" x="436.17" y="348.4551">имеет</text><text fill="#000000" font-family="sans-serif" font-size="13" lengthAdjust="spacing" textLength="54" x="400.2448" y="371.0387">&lt;&lt;0..1&gt;&gt;</text><text fill="#000000" font-family="sans-serif" font-size="13" lengthAdjust="spacing" textLength="39" x="365.5396" y="343.537">&lt;&lt;1&gt;&gt;</text></g><!--MD5=[985a3a51d387f7a35c384183e0e9e62f]
link PersonRussianPassportIdentityDocument to PersonForeignPassportIdentityDocument--><!--MD5=[63159b5261a820e96ce843713bb5d2be]
link PersonForeignPassportIdentityDocument to PersonRussianBirthCertificateIdentityDocument--><!--MD5=[1018b5825694fd7739ac2a444e7ce5f2]
link PersonRussianBirthCertificateIdentityDocument to PersonRussianResidencePermitIdentityDocument--><!--MD5=[5eb4e72ff85fc92d79d02ca3f0c9c3a4]
link PersonContact to PersonIdentity--><g id="link_PersonContact_PersonIdentity"><path codeLine="48" d="M551.88,66 C541.19,66 534.25,66 534.25,66 C534.25,66 534.25,117.92 534.25,149.76 " fill="none" id="PersonContact-PersonIdentity" style="stroke:#181818;stroke-width:1.0;"/><polygon fill="#000000" points="490.2798,103.343,485.5409,111.5888,491.2927,112.7995,490.2798,103.343" style="stroke:#000000;stroke-width:1.0;"/><text fill="#000000" font-family="sans-serif" font-size="13" lengthAdjust="spacing" textLength="35" x="498.25" y="113.5551">имеет</text><text fill="#000000" font-family="sans-serif" font-size="13" lengthAdjust="spacing" textLength="67" x="525.3385" y="60.7463">&lt;&lt;много&gt;&gt;</text><text fill="#000000" font-family="sans-serif" font-size="13" lengthAdjust="spacing" textLength="39" x="505.4359" y="139.0387">&lt;&lt;1&gt;&gt;</text></g><!--MD5=[fef1520fcafb84c6c723b81e8243e526]
link PersonIdentitySocialRating to PersonIdentity--><g id="link_PersonIdentitySocialRating_PersonIdentity"><path codeLine="49" d="M454,90.24 C454,108.02 454,132.08 454,149.84 " fill="none" id="PersonIdentitySocialRating-PersonIdentity" style="stroke:#181818;stroke-width:1.0;"/><polygon fill="#000000" points="459,124.2158,456.0611,133.2609,461.9389,133.2609,459,124.2158" style="stroke:#000000;stroke-width:1.0;"/><text fill="#000000" font-family="sans-serif" font-size="13" lengthAdjust="spacing" textLength="35" x="468" y="134.5351">имеет</text><text fill="#000000" font-family="sans-serif" font-size="13" lengthAdjust="spacing" textLength="39" x="438.5219" y="111.6365">&lt;&lt;1&gt;&gt;</text><text fill="#000000" font-family="sans-serif" font-size="13" lengthAdjust="spacing" textLength="39" x="404.6219" y="139.1392">&lt;&lt;1&gt;&gt;</text></g><!--MD5=[eb94ec0c6fa6735e33ba3b93f42d996d]
link PersonForeignPassportIdentityDocument to PersonCounterparty--><g id="link_PersonForeignPassportIdentityDocument_PersonCounterparty"><path codeLine="52" d="M480.25,489.64 C480.25,448.05 480.25,363.8 480.25,322.27 " fill="none" id="PersonForeignPassportIdentityDocument-PersonCounterparty" style="stroke:#181818;stroke-width:1.0;"/><polygon fill="#000000" points="485.25,402.1358,488.1889,393.0907,482.3111,393.0907,485.25,402.1358" style="stroke:#000000;stroke-width:1.0;"/><text fill="#000000" font-family="sans-serif" font-size="13" lengthAdjust="spacing" textLength="35" x="494.25" y="402.4551">имеет</text><text fill="#000000" font-family="sans-serif" font-size="13" lengthAdjust="spacing" textLength="54" x="469.9422" y="479.2902">&lt;&lt;0..1&gt;&gt;</text><text fill="#000000" font-family="sans-serif" font-size="13" lengthAdjust="spacing" textLength="39" x="486.2828" y="343.6738">&lt;&lt;1&gt;&gt;</text></g><!--MD5=[88309242506c5f6269d1a4de6269ca37]
link PersonRussianBirthCertificateIdentityDocument to PersonCounterparty--><g id="link_PersonRussianBirthCertificateIdentityDocument_PersonCounterparty"><path codeLine="53" d="M534.25,597.91 C534.25,537.93 534.25,382.4 534.25,322.25 " fill="none" id="PersonRussianBirthCertificateIdentityDocument-PersonCounterparty" style="stroke:#181818;stroke-width:1.0;"/><polygon fill="#000000" points="489.25,456.2558,492.1889,447.2107,486.3111,447.2107,489.25,456.2558" style="stroke:#000000;stroke-width:1.0;"/><text fill="#000000" font-family="sans-serif" font-size="13" lengthAdjust="spacing" textLength="35" x="498.25" y="456.5751">имеет</text><text fill="#000000" font-family="sans-serif" font-size="13" lengthAdjust="spacing" textLength="54" x="534.3828" y="587.2271">&lt;&lt;0..1&gt;&gt;</text><text fill="#000000" font-family="sans-serif" font-size="13" lengthAdjust="spacing" textLength="39" x="553.4453" y="343.6489">&lt;&lt;1&gt;&gt;</text></g><!--MD5=[523844cbb4d127e285e48921593d4d30]
link PersonRussianResidencePermitIdentityDocument to PersonCounterparty--><g id="link_PersonRussianResidencePermitIdentityDocument_PersonCounterparty"><path codeLine="54" d="M554.01,730 C574.54,730 588,730 588,730 C588,730 588,413.13 588,322.15 " fill="none" id="PersonRussianResidencePermitIdentityDocument-PersonCounterparty" style="stroke:#181818;stroke-width:1.0;"/><polygon fill="#000000" points="542.5847,539.2285,546.2647,530.4588,540.4072,529.9706,542.5847,539.2285" style="stroke:#000000;stroke-width:1.0;"/><text fill="#000000" font-family="sans-serif" font-size="13" lengthAdjust="spacing" textLength="35" x="552" y="539.5651">имеет</text><text fill="#000000" font-family="sans-serif" font-size="13" lengthAdjust="spacing" textLength="54" x="562.3479" y="727.2139">&lt;&lt;0..1&gt;&gt;</text><text fill="#000000" font-family="sans-serif" font-size="13" lengthAdjust="spacing" textLength="39" x="614.0859" y="342.0093">&lt;&lt;1&gt;&gt;</text></g><!--MD5=[c73c923923d49abc65fa3fcfced264b1]
@startuml

skinparam linetype ortho
top to bottom direction

package Context
{
    !startsub Main
    entity "PersonIdentity | Лицо" as PersonIdentity {
    }
    !endsub

    struct "PersonContact | Контакт лица" as PersonContact {
    }

    struct "PersonIdentitySocialRating |  Социальный рейтинг" as PersonIdentitySocialRating {
    }
}

package Counterparty
{
    entity "PersonCounterparty | Паспорт лица" as PersonCounterparty {
    }


    struct "PersonRussianPassportIdentityDocument | Паспорт РФ" as PersonRussianPassportIdentityDocument
    {
    }

    struct "PersonForeignPassportIdentityDocument | Иностранный паспорт" as PersonForeignPassportIdentityDocument
    {
    }

    struct "PersonRussianBirthCertificateIdentityDocument | Свидетельство о рождении РФ" as PersonRussianBirthCertificateIdentityDocument
    {
    }

    struct "PersonRussianResidencePermitIdentityDocument | ВНЖ РФ" as PersonRussianResidencePermitIdentityDocument
    {
    }
}

PersonIdentity-[hidden]down-PersonCounterparty
PersonCounterparty-[hidden]down-PersonRussianPassportIdentityDocument
PersonRussianPassportIdentityDocument-[hidden]down-PersonForeignPassportIdentityDocument
PersonForeignPassportIdentityDocument-[hidden]down-PersonRussianBirthCertificateIdentityDocument
PersonRussianBirthCertificateIdentityDocument-[hidden]down-PersonRussianResidencePermitIdentityDocument

PersonContact "<<много>>" - - "<<1>>" PersonIdentity : < имеет
PersonIdentitySocialRating "<<1>>" - - "<<1>>" PersonIdentity : < имеет
PersonCounterparty "**<color green><<1>></color>**" - - "**<color green><<1>></color>**" PersonIdentity : < имеет
PersonRussianPassportIdentityDocument "<<0..1>>" - - "<<1>>" PersonCounterparty : < имеет
PersonForeignPassportIdentityDocument "<<0..1>>" - - "<<1>>" PersonCounterparty : < имеет
PersonRussianBirthCertificateIdentityDocument "<<0..1>>" - - "<<1>>" PersonCounterparty : < имеет
PersonRussianResidencePermitIdentityDocument "<<0..1>>" - - "<<1>>" PersonCounterparty : < имеет

@enduml

@startuml

skinparam linetype ortho
top to bottom direction

package Context
{
    entity "PersonIdentity | Лицо" as PersonIdentity {
    }

    struct "PersonContact | Контакт лица" as PersonContact {
    }

    struct "PersonIdentitySocialRating |  Социальный рейтинг" as PersonIdentitySocialRating {
    }
}

package Counterparty
{
    entity "PersonCounterparty | Паспорт лица" as PersonCounterparty {
    }


    struct "PersonRussianPassportIdentityDocument | Паспорт РФ" as PersonRussianPassportIdentityDocument
    {
    }

    struct "PersonForeignPassportIdentityDocument | Иностранный паспорт" as PersonForeignPassportIdentityDocument
    {
    }

    struct "PersonRussianBirthCertificateIdentityDocument | Свидетельство о рождении РФ" as PersonRussianBirthCertificateIdentityDocument
    {
    }

    struct "PersonRussianResidencePermitIdentityDocument | ВНЖ РФ" as PersonRussianResidencePermitIdentityDocument
    {
    }
}

PersonIdentity-[hidden]down-PersonCounterparty
PersonCounterparty-[hidden]down-PersonRussianPassportIdentityDocument
PersonRussianPassportIdentityDocument-[hidden]down-PersonForeignPassportIdentityDocument
PersonForeignPassportIdentityDocument-[hidden]down-PersonRussianBirthCertificateIdentityDocument
PersonRussianBirthCertificateIdentityDocument-[hidden]down-PersonRussianResidencePermitIdentityDocument

PersonContact "<<много>>" - - "<<1>>" PersonIdentity : < имеет
PersonIdentitySocialRating "<<1>>" - - "<<1>>" PersonIdentity : < имеет
PersonCounterparty "**<color green><<1>></color>**" - - "**<color green><<1>></color>**" PersonIdentity : < имеет
PersonRussianPassportIdentityDocument "<<0..1>>" - - "<<1>>" PersonCounterparty : < имеет
PersonForeignPassportIdentityDocument "<<0..1>>" - - "<<1>>" PersonCounterparty : < имеет
PersonRussianBirthCertificateIdentityDocument "<<0..1>>" - - "<<1>>" PersonCounterparty : < имеет
PersonRussianResidencePermitIdentityDocument "<<0..1>>" - - "<<1>>" PersonCounterparty : < имеет

@enduml

PlantUML version 1.2022.7(Mon Aug 22 20:01:30 MSK 2022)
(GPL source distribution)
Java Runtime: Java(TM) SE Runtime Environment
JVM: Java HotSpot(TM) 64-Bit Server VM
Default Encoding: UTF-8
Language: en
Country: US
--></g></svg>