<?xml version="1.0" encoding="UTF-8" standalone="no"?><svg xmlns="http://www.w3.org/2000/svg" xmlns:xlink="http://www.w3.org/1999/xlink" contentStyleType="text/css" height="363px" preserveAspectRatio="none" style="width:392px;height:363px;background:#FFFFFF;" version="1.1" viewBox="0 0 392 363" width="392px" zoomAndPan="magnify"><defs/><g><!--MD5=[834e98962f20b09c78cd8e6ce75813d5]
cluster Context--><g id="cluster_Context"><path d="M92.5,6 L148.5,6 A3.75,3.75 0 0 1 151,8.5 L158,29.6094 L299.5,29.6094 A2.5,2.5 0 0 1 302,32.1094 L302,156.5 A2.5,2.5 0 0 1 299.5,159 L92.5,159 A2.5,2.5 0 0 1 90,156.5 L90,8.5 A2.5,2.5 0 0 1 92.5,6 " fill="none" style="stroke:#000000;stroke-width:1.5;"/><line style="stroke:#000000;stroke-width:1.5;" x1="90" x2="158" y1="29.6094" y2="29.6094"/><text fill="#000000" font-family="sans-serif" font-size="14" font-weight="bold" lengthAdjust="spacing" textLength="55" x="94" y="22.5332">Context</text></g><!--MD5=[46c94d56f899661bbecb55a2c2011501]
class Village--><g id="elem_Village"><rect codeLine="8" fill="#F1F1F1" height="101.2188" id="Village" rx="2.5" ry="2.5" style="stroke:#181818;stroke-width:0.5;" width="180" x="106" y="42"/><ellipse cx="139" cy="58" fill="#ADD1B2" rx="11" ry="11" style="stroke:#181818;stroke-width:1.0;"/><path d="M137.8594,58.7969 L137.8594,61.2969 L142.1875,61.2969 L142.1875,60.375 Q142.1875,59.7656 142.4219,59.5 Q142.6719,59.2344 143.0469,59.2344 Q143.4219,59.2344 143.6563,59.5 Q143.8906,59.7656 143.8906,60.375 L143.8906,63 L135.8906,63 Q135.2656,63 135,62.7656 Q134.75,62.5313 134.75,62.1406 Q134.75,61.7656 135.0156,61.5313 Q135.2813,61.2969 135.8906,61.2969 L136.1563,61.2969 L136.1563,54.6406 L135.8906,54.6406 Q135.2656,54.6406 135,54.4063 Q134.75,54.1719 134.75,53.7813 Q134.75,53.4063 135,53.1719 Q135.2656,52.9375 135.8906,52.9375 L143.5156,52.9375 L143.5156,55.5313 Q143.5156,56.1406 143.2813,56.4063 Q143.0625,56.6563 142.6719,56.6563 Q142.2969,56.6563 142.0625,56.4063 Q141.8281,56.1406 141.8281,55.5313 L141.8281,54.6406 L137.8594,54.6406 L137.8594,57.0938 L139.3438,57.0938 Q139.3438,56.4375 139.4688,56.25 Q139.7344,55.8438 140.2031,55.8438 Q140.5781,55.8438 140.8125,56.1094 Q141.0469,56.3594 141.0469,56.9688 L141.0469,58.9375 Q141.0469,59.4844 140.9219,59.6719 Q140.6563,60.0625 140.2031,60.0625 Q139.7344,60.0625 139.4688,59.6563 Q139.3438,59.4688 139.3438,58.7969 L137.8594,58.7969 Z " fill="#000000"/><text fill="#000000" font-family="sans-serif" font-size="14" lengthAdjust="spacing" textLength="108" x="157" y="63.7285">Посёлок / Village</text><line style="stroke:#181818;stroke-width:0.5;" x1="107" x2="285" y1="74" y2="74"/><rect fill="#FF8080" height="17.6094" style="stroke:none;stroke-width:1.0;" width="35" x="116" y="84"/><text fill="#000000" font-family="sans-serif" font-size="14" lengthAdjust="spacing" textLength="27" x="120" y="98.5332">guid</text><text fill="#000000" font-family="sans-serif" font-size="14" font-weight="bold" lengthAdjust="spacing" textLength="13" x="155" y="98.5332">Id</text><text fill="#000000" font-family="sans-serif" font-size="14" lengthAdjust="spacing" textLength="68" x="176" y="98.5332">Id посёлка</text><line style="stroke:#000000;stroke-width:1.0;" x1="116" x2="248" y1="84" y2="84"/><line style="stroke:#000000;stroke-width:1.0;" x1="116" x2="248" y1="101.6094" y2="101.6094"/><line style="stroke:#000000;stroke-width:1.0;" x1="116" x2="116" y1="84" y2="101.6094"/><line style="stroke:#000000;stroke-width:1.0;" x1="151" x2="151" y1="84" y2="101.6094"/><line style="stroke:#000000;stroke-width:1.0;" x1="172" x2="172" y1="84" y2="101.6094"/><line style="stroke:#000000;stroke-width:1.0;" x1="248" x2="248" y1="84" y2="101.6094"/><line style="stroke:#181818;stroke-width:1.0;" x1="107" x2="285" y1="108.6094" y2="108.6094"/><rect fill="#FF8080" height="17.6094" style="stroke:none;stroke-width:1.0;" width="43" x="116" y="118.6094"/><text fill="#000000" font-family="sans-serif" font-size="14" lengthAdjust="spacing" textLength="35" x="120" y="133.1426">string</text><text fill="#000000" font-family="sans-serif" font-size="14" font-weight="bold" lengthAdjust="spacing" textLength="39" x="163" y="133.1426">Name</text><text fill="#000000" font-family="sans-serif" font-size="14" lengthAdjust="spacing" textLength="62" x="210" y="133.1426">Название</text><line style="stroke:#000000;stroke-width:1.0;" x1="116" x2="276" y1="118.6094" y2="118.6094"/><line style="stroke:#000000;stroke-width:1.0;" x1="116" x2="276" y1="136.2188" y2="136.2188"/><line style="stroke:#000000;stroke-width:1.0;" x1="116" x2="116" y1="118.6094" y2="136.2188"/><line style="stroke:#000000;stroke-width:1.0;" x1="159" x2="159" y1="118.6094" y2="136.2188"/><line style="stroke:#000000;stroke-width:1.0;" x1="206" x2="206" y1="118.6094" y2="136.2188"/><line style="stroke:#000000;stroke-width:1.0;" x1="276" x2="276" y1="118.6094" y2="136.2188"/></g><!--MD5=[3b2ebc2a82a6ca42650088e4a2410713]
class Land--><g id="elem_Land"><rect codeLine="9" fill="#F1F1F1" height="153.4375" id="Land" rx="2.5" ry="2.5" style="stroke:#181818;stroke-width:0.5;" width="378" x="7" y="203"/><ellipse cx="142.25" cy="219" fill="#ADD1B2" rx="11" ry="11" style="stroke:#181818;stroke-width:1.0;"/><path d="M141.1094,219.7969 L141.1094,222.2969 L145.4375,222.2969 L145.4375,221.375 Q145.4375,220.7656 145.6719,220.5 Q145.9219,220.2344 146.2969,220.2344 Q146.6719,220.2344 146.9063,220.5 Q147.1406,220.7656 147.1406,221.375 L147.1406,224 L139.1406,224 Q138.5156,224 138.25,223.7656 Q138,223.5313 138,223.1406 Q138,222.7656 138.2656,222.5313 Q138.5313,222.2969 139.1406,222.2969 L139.4063,222.2969 L139.4063,215.6406 L139.1406,215.6406 Q138.5156,215.6406 138.25,215.4063 Q138,215.1719 138,214.7813 Q138,214.4063 138.25,214.1719 Q138.5156,213.9375 139.1406,213.9375 L146.7656,213.9375 L146.7656,216.5313 Q146.7656,217.1406 146.5313,217.4063 Q146.3125,217.6563 145.9219,217.6563 Q145.5469,217.6563 145.3125,217.4063 Q145.0781,217.1406 145.0781,216.5313 L145.0781,215.6406 L141.1094,215.6406 L141.1094,218.0938 L142.5938,218.0938 Q142.5938,217.4375 142.7188,217.25 Q142.9844,216.8438 143.4531,216.8438 Q143.8281,216.8438 144.0625,217.1094 Q144.2969,217.3594 144.2969,217.9688 L144.2969,219.9375 Q144.2969,220.4844 144.1719,220.6719 Q143.9063,221.0625 143.4531,221.0625 Q142.9844,221.0625 142.7188,220.6563 Q142.5938,220.4688 142.5938,219.7969 L141.1094,219.7969 Z " fill="#000000"/><text fill="#000000" font-family="sans-serif" font-size="14" lengthAdjust="spacing" textLength="95" x="162.75" y="224.7285">Land | Участок</text><line style="stroke:#181818;stroke-width:0.5;" x1="8" x2="384" y1="235" y2="235"/><rect fill="#FF8080" height="17.6094" style="stroke:none;stroke-width:1.0;" width="35" x="17" y="245"/><text fill="#000000" font-family="sans-serif" font-size="14" lengthAdjust="spacing" textLength="27" x="21" y="259.5332">guid</text><text fill="#000000" font-family="sans-serif" font-size="14" font-weight="bold" lengthAdjust="spacing" textLength="13" x="56" y="259.5332">Id</text><text fill="#000000" font-family="sans-serif" font-size="14" lengthAdjust="spacing" textLength="65" x="77" y="259.5332">Id участка</text><line style="stroke:#000000;stroke-width:1.0;" x1="17" x2="146" y1="245" y2="245"/><line style="stroke:#000000;stroke-width:1.0;" x1="17" x2="146" y1="262.6094" y2="262.6094"/><line style="stroke:#000000;stroke-width:1.0;" x1="17" x2="17" y1="245" y2="262.6094"/><line style="stroke:#000000;stroke-width:1.0;" x1="52" x2="52" y1="245" y2="262.6094"/><line style="stroke:#000000;stroke-width:1.0;" x1="73" x2="73" y1="245" y2="262.6094"/><line style="stroke:#000000;stroke-width:1.0;" x1="146" x2="146" y1="245" y2="262.6094"/><line style="stroke:#181818;stroke-width:1.0;" x1="8" x2="384" y1="269.6094" y2="269.6094"/><text fill="#000000" font-family="sans-serif" font-size="14" lengthAdjust="spacing" textLength="27" x="21" y="294.1426">guid</text><text fill="#000000" font-family="sans-serif" font-size="14" font-weight="bold" lengthAdjust="spacing" textLength="60" x="56" y="294.1426">VillageId</text><text fill="#000000" font-family="sans-serif" font-size="14" lengthAdjust="spacing" textLength="68" x="124" y="294.1426">Id посёлка</text><line style="stroke:#000000;stroke-width:1.0;" x1="17" x2="196" y1="279.6094" y2="279.6094"/><line style="stroke:#000000;stroke-width:1.0;" x1="17" x2="196" y1="297.2188" y2="297.2188"/><line style="stroke:#000000;stroke-width:1.0;" x1="17" x2="17" y1="279.6094" y2="297.2188"/><line style="stroke:#000000;stroke-width:1.0;" x1="52" x2="52" y1="279.6094" y2="297.2188"/><line style="stroke:#000000;stroke-width:1.0;" x1="120" x2="120" y1="279.6094" y2="297.2188"/><line style="stroke:#000000;stroke-width:1.0;" x1="196" x2="196" y1="279.6094" y2="297.2188"/><line style="stroke:#181818;stroke-width:1.0;" x1="8" x2="384" y1="304.2188" y2="304.2188"/><rect fill="#FF8080" height="17.6094" style="stroke:none;stroke-width:1.0;" width="132" x="17" y="314.2188"/><text fill="#000000" font-family="sans-serif" font-size="14" lengthAdjust="spacing" textLength="68" x="25" y="328.752">LandName</text><text fill="#000000" font-family="sans-serif" font-size="14" font-weight="bold" lengthAdjust="spacing" textLength="39" x="153" y="328.752">Name</text><text fill="#000000" font-family="sans-serif" font-size="14" lengthAdjust="spacing" textLength="116" x="255" y="328.752">Название участка</text><rect fill="#FF8080" height="17.6094" style="stroke:none;stroke-width:1.0;" width="132" x="17" y="331.8281"/><text fill="#000000" font-family="sans-serif" font-size="14" lengthAdjust="spacing" textLength="120" x="25" y="346.3613">LandCadastreData</text><text fill="#000000" font-family="sans-serif" font-size="14" font-weight="bold" lengthAdjust="spacing" textLength="94" x="153" y="346.3613">CadastreData</text><text fill="#000000" font-family="sans-serif" font-size="14" lengthAdjust="spacing" textLength="108" x="255" y="346.3613">Кадастр участка</text><line style="stroke:#000000;stroke-width:1.0;" x1="17" x2="375" y1="314.2188" y2="314.2188"/><line style="stroke:#000000;stroke-width:1.0;" x1="17" x2="375" y1="331.8281" y2="331.8281"/><line style="stroke:#000000;stroke-width:1.0;" x1="17" x2="375" y1="349.4375" y2="349.4375"/><line style="stroke:#000000;stroke-width:1.0;" x1="17" x2="17" y1="314.2188" y2="349.4375"/><line style="stroke:#000000;stroke-width:1.0;" x1="149" x2="149" y1="314.2188" y2="349.4375"/><line style="stroke:#000000;stroke-width:1.0;" x1="251" x2="251" y1="314.2188" y2="349.4375"/><line style="stroke:#000000;stroke-width:1.0;" x1="375" x2="375" y1="314.2188" y2="349.4375"/></g><!--MD5=[93bd0a0387ac36762c2c63a5357df6b4]
link Village to Land--><g id="link_Village_Land"><path codeLine="9" d="M196,143.1 C196,161.49 196,182.71 196,202.84 " fill="none" id="Village-Land" style="stroke:#181818;stroke-width:1.0;"/><text fill="#000000" font-family="sans-serif" font-size="13" lengthAdjust="spacing" textLength="39" x="154.2578" y="164.8451">&lt;&lt;1&gt;&gt;</text><text fill="#000000" font-family="sans-serif" font-size="13" lengthAdjust="spacing" textLength="67" x="125.807" y="192.2619">&lt;&lt;много&gt;&gt;</text></g><!--MD5=[df0519df1a8e164f4f601b9c41d65f95]
@startuml

skinparam linetype ortho
!includesub land.puml!Main

package Context
{
    !startsub Main
    entity "Посёлок / Village" as Village {
        |<#FF8080> guid |= Id | Id посёлка |
        - -
        |<#FF8080> string |= Name | Название |
    }
    !endsub
}


!includesub relations.puml!Village

@enduml

@startuml

skinparam linetype ortho
    entity "Land | Участок " as Land {
        |<#FF8080> guid |= Id | Id участка |
        - -
        | guid |= VillageId | Id посёлка |
        - -
        |<#FF8080>  LandName |= Name | Название участка |
        |<#FF8080>  LandCadastreData |= CadastreData | Кадастр участка |
    }

package Context
{
    entity "Посёлок / Village" as Village {
        |<#FF8080> guid |= Id | Id посёлка |
        - -
        |<#FF8080> string |= Name | Название |
    }
}


Village "<<1>>" -down- "<<много>>" Land

@enduml

PlantUML version 1.2022.7(Mon Aug 22 20:01:30 MSK 2022)
(GPL source distribution)
Java Runtime: Java(TM) SE Runtime Environment
JVM: Java HotSpot(TM) 64-Bit Server VM
Default Encoding: UTF-8
Language: en
Country: US
--></g></svg>