<?xml version="1.0" encoding="UTF-8" standalone="no"?><svg xmlns="http://www.w3.org/2000/svg" xmlns:xlink="http://www.w3.org/1999/xlink" contentStyleType="text/css" height="205px" preserveAspectRatio="none" style="width:185px;height:205px;background:#FFFFFF;" version="1.1" viewBox="0 0 185 205" width="185px" zoomAndPan="magnify"><defs/><g><!--MD5=[834e98962f20b09c78cd8e6ce75813d5]
cluster Context--><g id="cluster_Context"><path d="M8.5,6 L64.5,6 A3.75,3.75 0 0 1 67,8.5 L74,29.6094 L175.5,29.6094 A2.5,2.5 0 0 1 178,32.1094 L178,103.5 A2.5,2.5 0 0 1 175.5,106 L8.5,106 A2.5,2.5 0 0 1 6,103.5 L6,8.5 A2.5,2.5 0 0 1 8.5,6 " fill="none" style="stroke:#000000;stroke-width:1.5;"/><line style="stroke:#000000;stroke-width:1.5;" x1="6" x2="74" y1="29.6094" y2="29.6094"/><text fill="#000000" font-family="sans-serif" font-size="14" font-weight="bold" lengthAdjust="spacing" textLength="55" x="10" y="22.5332">Context</text></g><!--MD5=[46c94d56f899661bbecb55a2c2011501]
class Village--><g id="elem_Village"><rect codeLine="8" fill="#F1F1F1" height="48" id="Village" rx="2.5" ry="2.5" style="stroke:#181818;stroke-width:0.5;" width="140" x="22" y="42"/><ellipse cx="37" cy="58" fill="#ADD1B2" rx="11" ry="11" style="stroke:#181818;stroke-width:1.0;"/><path d="M35.8594,58.7969 L35.8594,61.2969 L40.1875,61.2969 L40.1875,60.375 Q40.1875,59.7656 40.4219,59.5 Q40.6719,59.2344 41.0469,59.2344 Q41.4219,59.2344 41.6563,59.5 Q41.8906,59.7656 41.8906,60.375 L41.8906,63 L33.8906,63 Q33.2656,63 33,62.7656 Q32.75,62.5313 32.75,62.1406 Q32.75,61.7656 33.0156,61.5313 Q33.2813,61.2969 33.8906,61.2969 L34.1563,61.2969 L34.1563,54.6406 L33.8906,54.6406 Q33.2656,54.6406 33,54.4063 Q32.75,54.1719 32.75,53.7813 Q32.75,53.4063 33,53.1719 Q33.2656,52.9375 33.8906,52.9375 L41.5156,52.9375 L41.5156,55.5313 Q41.5156,56.1406 41.2813,56.4063 Q41.0625,56.6563 40.6719,56.6563 Q40.2969,56.6563 40.0625,56.4063 Q39.8281,56.1406 39.8281,55.5313 L39.8281,54.6406 L35.8594,54.6406 L35.8594,57.0938 L37.3438,57.0938 Q37.3438,56.4375 37.4688,56.25 Q37.7344,55.8438 38.2031,55.8438 Q38.5781,55.8438 38.8125,56.1094 Q39.0469,56.3594 39.0469,56.9688 L39.0469,58.9375 Q39.0469,59.4844 38.9219,59.6719 Q38.6563,60.0625 38.2031,60.0625 Q37.7344,60.0625 37.4688,59.6563 Q37.3438,59.4688 37.3438,58.7969 L35.8594,58.7969 Z " fill="#000000"/><text fill="#000000" font-family="sans-serif" font-size="14" lengthAdjust="spacing" textLength="108" x="51" y="63.7285">Посёлок / Village</text><line style="stroke:#181818;stroke-width:0.5;" x1="23" x2="161" y1="74" y2="74"/><line style="stroke:#181818;stroke-width:0.5;" x1="23" x2="161" y1="82" y2="82"/></g><!--MD5=[3b2ebc2a82a6ca42650088e4a2410713]
class Land--><g id="elem_Land"><rect codeLine="9" fill="#F1F1F1" height="48" id="Land" rx="2.5" ry="2.5" style="stroke:#181818;stroke-width:0.5;" width="131" x="26.5" y="150"/><ellipse cx="41.5" cy="166" fill="#ADD1B2" rx="11" ry="11" style="stroke:#181818;stroke-width:1.0;"/><path d="M40.3594,166.7969 L40.3594,169.2969 L44.6875,169.2969 L44.6875,168.375 Q44.6875,167.7656 44.9219,167.5 Q45.1719,167.2344 45.5469,167.2344 Q45.9219,167.2344 46.1563,167.5 Q46.3906,167.7656 46.3906,168.375 L46.3906,171 L38.3906,171 Q37.7656,171 37.5,170.7656 Q37.25,170.5313 37.25,170.1406 Q37.25,169.7656 37.5156,169.5313 Q37.7813,169.2969 38.3906,169.2969 L38.6563,169.2969 L38.6563,162.6406 L38.3906,162.6406 Q37.7656,162.6406 37.5,162.4063 Q37.25,162.1719 37.25,161.7813 Q37.25,161.4063 37.5,161.1719 Q37.7656,160.9375 38.3906,160.9375 L46.0156,160.9375 L46.0156,163.5313 Q46.0156,164.1406 45.7813,164.4063 Q45.5625,164.6563 45.1719,164.6563 Q44.7969,164.6563 44.5625,164.4063 Q44.3281,164.1406 44.3281,163.5313 L44.3281,162.6406 L40.3594,162.6406 L40.3594,165.0938 L41.8438,165.0938 Q41.8438,164.4375 41.9688,164.25 Q42.2344,163.8438 42.7031,163.8438 Q43.0781,163.8438 43.3125,164.1094 Q43.5469,164.3594 43.5469,164.9688 L43.5469,166.9375 Q43.5469,167.4844 43.4219,167.6719 Q43.1563,168.0625 42.7031,168.0625 Q42.2344,168.0625 41.9688,167.6563 Q41.8438,167.4688 41.8438,166.7969 L40.3594,166.7969 Z " fill="#000000"/><text fill="#000000" font-family="sans-serif" font-size="14" lengthAdjust="spacing" textLength="95" x="55.5" y="171.7285">Land | Участок</text><line style="stroke:#181818;stroke-width:0.5;" x1="27.5" x2="156.5" y1="182" y2="182"/><line style="stroke:#181818;stroke-width:0.5;" x1="27.5" x2="156.5" y1="190" y2="190"/></g><!--MD5=[93bd0a0387ac36762c2c63a5357df6b4]
link Village to Land--><g id="link_Village_Land"><path codeLine="9" d="M92,98.24 C92,98.24 92,141.84 92,141.84 " fill="none" id="Village-Land" style="stroke:#181818;stroke-width:1.0;"/><line style="stroke:#181818;stroke-width:1.0;" x1="92" x2="98" y1="141.84" y2="149.84"/><line style="stroke:#181818;stroke-width:1.0;" x1="92" x2="86" y1="141.84" y2="149.84"/><line style="stroke:#181818;stroke-width:1.0;" x1="92" x2="92" y1="141.84" y2="149.84"/><ellipse cx="92" cy="135.84" fill="none" rx="4" ry="4" style="stroke:#181818;stroke-width:1.0;"/><line style="stroke:#181818;stroke-width:1.0;" x1="92" x2="92" y1="101.24" y2="90.24"/><ellipse cx="92" cy="101.24" fill="none" rx="4" ry="4" style="stroke:#181818;stroke-width:1.0;"/><line style="stroke:#181818;stroke-width:1.0;" x1="88" x2="96" y1="94.24" y2="94.24"/></g><!--MD5=[657b1dd7d8886ab5ee2fee2034bea8e9]
@startuml

skinparam linetype ortho
!includesub land.puml!Main

package Context
{
    !startsub Main
    entity "Посёлок / Village" as Village {
    }
    !endsub
}


!includesub relations.puml!Village

@enduml

@startuml

skinparam linetype ortho
    entity "Land | Участок " as Land {
    }

package Context
{
    entity "Посёлок / Village" as Village {
    }
}


Village |o- -o{ Land

@enduml

PlantUML version 1.2022.7(Mon Aug 22 20:01:30 MSK 2022)
(GPL source distribution)
Java Runtime: Java(TM) SE Runtime Environment
JVM: Java HotSpot(TM) 64-Bit Server VM
Default Encoding: UTF-8
Language: en
Country: US
--></g></svg>